<?xml version="1.0" encoding="UTF-8" standalone="no"?>
<!-- Created with Inkscape (http://www.inkscape.org/) -->

<svg
   width="170"
   height="170"
   viewBox="0 0 44.979165 44.979165"
   version="1.1"
   id="svg1112"
   xmlns:xlink="http://www.w3.org/1999/xlink"
   xmlns="http://www.w3.org/2000/svg"
   xmlns:svg="http://www.w3.org/2000/svg">
  <defs
     id="defs1109">
    <clipPath
       id="SVGID_18_">
      <use
         xlink:href="#SVGID_17_"
         overflow="visible"
         id="use517"
         x="0"
         y="0"
         width="100%"
         height="100%" />
    </clipPath>
    <path
       id="SVGID_17_"
       d="m 376.449,116.609 -5.125,38.75 9.25,19.25 c 2.47,3.315 41.384,10.603 43.296,15.395 5.67,2.74 16.28,5.343 30.811,-1.834 0.889,-3.945 51.108,-19.005 52.269,-22.185 l 3.875,-46.625 -23.375,-14.875 -83.125,0.5 z" />
    <clipPath
       id="SVGID_20_">
      <use
         xlink:href="#SVGID_19_"
         overflow="visible"
         id="use544"
         x="0"
         y="0"
         width="100%"
         height="100%" />
    </clipPath>
    <path
       id="SVGID_19_"
       d="m 396.057,327.923 c 16.963,6.422 15.968,9.796 21.581,17.331 9.367,12.577 14.06,27.139 5.958,46.478 0,0 1.586,10.457 21.085,7.604 13.175,-1.928 18.08,-8.631 18.08,-8.631 -9.81,-18.311 -7.957,-30.204 -2.646,-44.761 2.751,-7.54 9.621,-15.563 28.804,-22.27 l -49.538,-20.582 z" />
    <clipPath
       id="SVGID_22_">
      <use
         xlink:href="#SVGID_21_"
         overflow="visible"
         id="use569"
         x="0"
         y="0"
         width="100%"
         height="100%" />
    </clipPath>
    <path
       id="SVGID_21_"
       d="m 405.106,495.489 c 0.442,6.755 4.651,11.32 10.481,15.831 10.613,8.211 14.405,24.315 8.789,40.358 0,0 -0.691,8.188 16.169,7.917 17.684,-0.285 17.97,-6.275 17.97,-6.275 -5.705,-16.543 -2.497,-42.642 16.328,-51.199 6.574,-2.988 -7.486,-2.139 1.927,-5.348 L 437.884,475.83 Z" />
    <clipPath
       id="SVGID_12_">
      <use
         xlink:href="#SVGID_11_"
         overflow="visible"
         id="use445"
         x="0"
         y="0"
         width="100%"
         height="100%" />
    </clipPath>
    <path
       id="SVGID_11_"
       d="m 56.157,160.256 c 0,0 49.433,2.535 52.524,80.946 0,0 7.015,9.883 33.474,0 0,0 -14.145,-79.974 40.754,-86.016 0,0 5.921,-13.603 -4.833,-21.39 -6.892,-4.991 -9.291,-3.578 -15.923,-7.605 -6.654,-4.04 -3.327,-12.358 -13.784,-14.735 -10.932,-2.484 -13.546,6.892 -23.291,7.605 -9.029,0.661 -13.223,-8.271 -27.569,-6.179 -11.407,1.664 -6.892,9.744 -16.161,15.923 -7.283,4.855 -13.218,3.398 -18.05,7.778 -6.19,5.61 -6.626,18.267 -7.141,23.673 z" />
    <clipPath
       id="SVGID_14_">
      <use
         xlink:href="#SVGID_13_"
         overflow="visible"
         id="use472"
         x="0"
         y="0"
         width="100%"
         height="100%" />
    </clipPath>
    <path
       id="SVGID_13_"
       d="m 68.503,329.595 c 0,0 44.268,14.421 39.573,63.719 0,0 7.378,10.396 35.211,0 0,0 -5.03,-65.061 37.226,-80.822 0,0 -7.043,-3.019 -17.775,-5.701 -11.328,-2.832 -11.737,-18.445 -25.152,-14.756 -15.573,4.283 -17.101,6.708 -27.833,6.708 -6.676,0 -19.786,-7.378 -26.158,5.365 -6.372,12.743 -3.355,17.104 -15.092,25.487 z" />
    <clipPath
       id="SVGID_16_">
      <use
         xlink:href="#SVGID_15_"
         overflow="visible"
         id="use496"
         x="0"
         y="0"
         width="100%"
         height="100%" />
    </clipPath>
    <path
       id="SVGID_15_"
       d="m 87.824,499.484 c 0,0 31.134,14.591 27.333,54.5 0,0 5.333,10 23.333,0.667 0,0 1.667,-53 31.354,-65.357 0,0 -0.456,-8.984 -9.021,-9.643 -10.833,-0.833 -13.286,-8.029 -23,-9 -10.833,-1.083 -23.204,3.755 -29.333,10 -8.832,9 -20.332,5.667 -20.666,18.833 z" />
    <clipPath
       id="SVGID_6_">
      <use
         xlink:href="#SVGID_5_"
         overflow="visible"
         id="use301"
         x="0"
         y="0"
         width="100%"
         height="100%" />
    </clipPath>
    <path
       id="SVGID_5_"
       d="m 395.854,749.385 c 0,0 46.565,19.874 97.63,-9.211 52.823,-30.086 -34.626,-77.529 -61.66,-72.415 -27.035,5.115 -84.926,68.858 -35.97,81.626 z" />
    <clipPath
       id="SVGID_8_">
      <use
         xlink:href="#SVGID_7_"
         overflow="visible"
         id="use336"
         x="0"
         y="0"
         width="100%"
         height="100%" />
    </clipPath>
    <path
       id="SVGID_7_"
       d="m 248.749,760.249 c 0,0 33.322,16.568 73.075,-11.454 39.752,-28.021 -25.139,-71.867 -46.769,-67.775 -21.629,4.093 -65.475,69.013 -26.306,79.229 z" />
    <clipPath
       id="SVGID_10_">
      <use
         xlink:href="#SVGID_9_"
         overflow="visible"
         id="use369"
         x="0"
         y="0"
         width="100%"
         height="100%" />
    </clipPath>
    <path
       id="SVGID_9_"
       d="m 87.11,751.097 c 0,0 34.248,22.562 71.22,-9.04 17.357,-14.836 -19.443,-57 -41.227,-53.825 -21.783,3.175 -46.089,44.962 -29.993,62.865 z" />
  </defs>
  <g
     id="layer1">
    <g
       id="MUCHOMOR_1_2_"
       transform="matrix(0.26458333,0,0,0.26458333,-9.8883159,-172.21835)">
      <path
         fill="#f5f5d2"
         d="m 110.977,728.369 c 0,0 -29.068,58.05 13.253,55.281 43.68,-2.859 16.68,-59.109 16.68,-59.109"
         id="path362" />
      <path
         fill="#ed761b"
         d="m 87.11,751.097 c 0,0 34.248,22.562 71.22,-9.04 17.357,-14.836 -19.443,-57 -41.227,-53.825 -21.783,3.175 -46.089,44.962 -29.993,62.865 z"
         id="path364" />
      <g
         id="g388">
        <defs
           id="defs367">
          <path
             id="path4100"
             d="m 87.11,751.097 c 0,0 34.248,22.562 71.22,-9.04 17.357,-14.836 -19.443,-57 -41.227,-53.825 -21.783,3.175 -46.089,44.962 -29.993,62.865 z" />
        </defs>
        <clipPath
           id="clipPath4009">
          <use
             xlink:href="#SVGID_9_"
             overflow="visible"
             id="use4007"
             x="0"
             y="0"
             width="100%"
             height="100%" />
        </clipPath>
        <g
           clip-path="url(#SVGID_10_)"
           id="g386">
          <circle
             fill="#e6a76e"
             cx="78.656998"
             cy="724.54102"
             r="10.182"
             id="circle372" />
          <circle
             fill="#e6a76e"
             cx="130.51801"
             cy="682.91998"
             r="14.533"
             id="circle374" />
          <circle
             fill="#e6a76e"
             cx="130.519"
             cy="722.45398"
             r="9.9639997"
             id="circle376" />
          <circle
             fill="#e6a76e"
             cx="162.842"
             cy="703.57001"
             r="15.315"
             id="circle378" />
          <circle
             fill="#e6a76e"
             cx="106.229"
             cy="748.22302"
             r="11.237"
             id="circle380" />
          <circle
             fill="#e6a76e"
             cx="101.96"
             cy="706.461"
             r="7.7449999"
             id="circle382" />
          <circle
             fill="#e6a76e"
             cx="149.442"
             cy="748.08801"
             r="9.1370001"
             id="circle384" />
        </g>
      </g>
      <g
         id="g392">
        <path
           fill="#07583d"
           d="m 119.515,688.062 c 21.955,0 55.546,39.694 38.815,53.995 -3.308,2.827 -6.593,5.215 -9.835,7.229 2.333,15.491 -0.529,32.811 -24.266,34.364 -0.986,0.064 -1.931,0.096 -2.841,0.096 -18.606,0 -21.538,-13.181 -19.658,-26.682 -9.058,-2.307 -14.62,-5.968 -14.62,-5.968 -16.097,-17.902 8.21,-59.689 29.993,-62.865 0.786,-0.114 1.59,-0.169 2.412,-0.169 m 0,-11.339 c -1.372,0 -2.733,0.098 -4.047,0.289 -18.555,2.705 -34.894,22.465 -41.444,40.585 -5.882,16.275 -4.186,31.249 4.655,41.081 l 0.977,1.087 1.221,0.804 c 0.495,0.325 3.73,2.398 9.05,4.541 0.248,8.306 2.638,15.103 7.147,20.282 5.598,6.432 13.779,9.693 24.315,9.693 1.158,0 2.363,-0.04 3.581,-0.12 12.252,-0.802 21.613,-5.119 27.824,-12.831 5.601,-6.955 8.161,-16.105 7.643,-27.269 1.782,-1.319 3.54,-2.719 5.261,-4.189 8.549,-7.308 10.754,-18.809 6.048,-31.555 -3.598,-9.749 -11.122,-20.055 -20.642,-28.275 -6.108,-5.275 -18.334,-14.123 -31.589,-14.123 z"
           id="path390" />
      </g>
    </g>
  </g>
</svg>
