<?xml version="1.0" encoding="UTF-8" standalone="no"?>
<!-- Created with Inkscape (http://www.inkscape.org/) -->

<svg
   width="170"
   height="170"
   viewBox="0 0 44.979165 44.979165"
   version="1.1"
   id="svg1112"
   xmlns:xlink="http://www.w3.org/1999/xlink"
   xmlns="http://www.w3.org/2000/svg"
   xmlns:svg="http://www.w3.org/2000/svg">
  <defs
     id="defs1109">
    <clipPath
       id="SVGID_18_">
      <use
         xlink:href="#SVGID_17_"
         overflow="visible"
         id="use517"
         x="0"
         y="0"
         width="100%"
         height="100%" />
    </clipPath>
    <path
       id="SVGID_17_"
       d="m 376.449,116.609 -5.125,38.75 9.25,19.25 c 2.47,3.315 41.384,10.603 43.296,15.395 5.67,2.74 16.28,5.343 30.811,-1.834 0.889,-3.945 51.108,-19.005 52.269,-22.185 l 3.875,-46.625 -23.375,-14.875 -83.125,0.5 z" />
    <clipPath
       id="SVGID_20_">
      <use
         xlink:href="#SVGID_19_"
         overflow="visible"
         id="use544"
         x="0"
         y="0"
         width="100%"
         height="100%" />
    </clipPath>
    <path
       id="SVGID_19_"
       d="m 396.057,327.923 c 16.963,6.422 15.968,9.796 21.581,17.331 9.367,12.577 14.06,27.139 5.958,46.478 0,0 1.586,10.457 21.085,7.604 13.175,-1.928 18.08,-8.631 18.08,-8.631 -9.81,-18.311 -7.957,-30.204 -2.646,-44.761 2.751,-7.54 9.621,-15.563 28.804,-22.27 l -49.538,-20.582 z" />
    <clipPath
       id="SVGID_22_">
      <use
         xlink:href="#SVGID_21_"
         overflow="visible"
         id="use569"
         x="0"
         y="0"
         width="100%"
         height="100%" />
    </clipPath>
    <path
       id="SVGID_21_"
       d="m 405.106,495.489 c 0.442,6.755 4.651,11.32 10.481,15.831 10.613,8.211 14.405,24.315 8.789,40.358 0,0 -0.691,8.188 16.169,7.917 17.684,-0.285 17.97,-6.275 17.97,-6.275 -5.705,-16.543 -2.497,-42.642 16.328,-51.199 6.574,-2.988 -7.486,-2.139 1.927,-5.348 L 437.884,475.83 Z" />
    <clipPath
       id="SVGID_12_">
      <use
         xlink:href="#SVGID_11_"
         overflow="visible"
         id="use445"
         x="0"
         y="0"
         width="100%"
         height="100%" />
    </clipPath>
    <path
       id="SVGID_11_"
       d="m 56.157,160.256 c 0,0 49.433,2.535 52.524,80.946 0,0 7.015,9.883 33.474,0 0,0 -14.145,-79.974 40.754,-86.016 0,0 5.921,-13.603 -4.833,-21.39 -6.892,-4.991 -9.291,-3.578 -15.923,-7.605 -6.654,-4.04 -3.327,-12.358 -13.784,-14.735 -10.932,-2.484 -13.546,6.892 -23.291,7.605 -9.029,0.661 -13.223,-8.271 -27.569,-6.179 -11.407,1.664 -6.892,9.744 -16.161,15.923 -7.283,4.855 -13.218,3.398 -18.05,7.778 -6.19,5.61 -6.626,18.267 -7.141,23.673 z" />
    <clipPath
       id="SVGID_14_">
      <use
         xlink:href="#SVGID_13_"
         overflow="visible"
         id="use472"
         x="0"
         y="0"
         width="100%"
         height="100%" />
    </clipPath>
    <path
       id="SVGID_13_"
       d="m 68.503,329.595 c 0,0 44.268,14.421 39.573,63.719 0,0 7.378,10.396 35.211,0 0,0 -5.03,-65.061 37.226,-80.822 0,0 -7.043,-3.019 -17.775,-5.701 -11.328,-2.832 -11.737,-18.445 -25.152,-14.756 -15.573,4.283 -17.101,6.708 -27.833,6.708 -6.676,0 -19.786,-7.378 -26.158,5.365 -6.372,12.743 -3.355,17.104 -15.092,25.487 z" />
    <clipPath
       id="SVGID_16_">
      <use
         xlink:href="#SVGID_15_"
         overflow="visible"
         id="use496"
         x="0"
         y="0"
         width="100%"
         height="100%" />
    </clipPath>
    <path
       id="SVGID_15_"
       d="m 87.824,499.484 c 0,0 31.134,14.591 27.333,54.5 0,0 5.333,10 23.333,0.667 0,0 1.667,-53 31.354,-65.357 0,0 -0.456,-8.984 -9.021,-9.643 -10.833,-0.833 -13.286,-8.029 -23,-9 -10.833,-1.083 -23.204,3.755 -29.333,10 -8.832,9 -20.332,5.667 -20.666,18.833 z" />
    <clipPath
       id="SVGID_6_">
      <use
         xlink:href="#SVGID_5_"
         overflow="visible"
         id="use301"
         x="0"
         y="0"
         width="100%"
         height="100%" />
    </clipPath>
    <path
       id="SVGID_5_"
       d="m 395.854,749.385 c 0,0 46.565,19.874 97.63,-9.211 52.823,-30.086 -34.626,-77.529 -61.66,-72.415 -27.035,5.115 -84.926,68.858 -35.97,81.626 z" />
    <clipPath
       id="SVGID_8_">
      <use
         xlink:href="#SVGID_7_"
         overflow="visible"
         id="use336"
         x="0"
         y="0"
         width="100%"
         height="100%" />
    </clipPath>
    <path
       id="SVGID_7_"
       d="m 248.749,760.249 c 0,0 33.322,16.568 73.075,-11.454 39.752,-28.021 -25.139,-71.867 -46.769,-67.775 -21.629,4.093 -65.475,69.013 -26.306,79.229 z" />
  </defs>
  <g
     id="layer1">
    <g
       id="MUCHOMOR_2_2_"
       transform="matrix(0.26458333,0,0,0.26458333,-52.58691,-172.25301)">
      <path
         fill="#f5f5d2"
         d="m 271.228,736.037 c 0,0 -29.159,55.28 13.253,55.28 42.411,0 18.851,-55.28 18.851,-55.28"
         id="path329" />
      <path
         fill="#ed761b"
         d="m 248.749,760.249 c 0,0 33.322,16.568 73.075,-11.454 39.752,-28.021 -25.139,-71.867 -46.769,-67.775 -21.629,4.093 -65.475,69.013 -26.306,79.229 z"
         id="path331" />
      <g
         id="g355">
        <defs
           id="defs334">
          <path
             id="path3815"
             d="m 248.749,760.249 c 0,0 33.322,16.568 73.075,-11.454 39.752,-28.021 -25.139,-71.867 -46.769,-67.775 -21.629,4.093 -65.475,69.013 -26.306,79.229 z" />
        </defs>
        <clipPath
           id="clipPath3724">
          <use
             xlink:href="#SVGID_7_"
             overflow="visible"
             id="use3722"
             x="0"
             y="0"
             width="100%"
             height="100%" />
        </clipPath>
        <g
           clip-path="url(#SVGID_8_)"
           id="g353">
          <circle
             fill="#e6a76e"
             cx="252.549"
             cy="709.95697"
             r="11.4"
             id="circle339" />
          <circle
             fill="#e6a76e"
             cx="286.06601"
             cy="688.32703"
             r="16.271999"
             id="circle341" />
          <circle
             fill="#e6a76e"
             cx="291.849"
             cy="731.56897"
             r="12.278"
             id="circle343" />
          <circle
             fill="#e6a76e"
             cx="329.61899"
             cy="707.13202"
             r="17.148001"
             id="circle345" />
          <circle
             fill="#e6a76e"
             cx="259.30099"
             cy="755.68402"
             r="14.449"
             id="circle347" />
          <circle
             fill="#e6a76e"
             cx="227.606"
             cy="739.771"
             r="8.6719999"
             id="circle349" />
          <circle
             fill="#e6a76e"
             cx="326.82401"
             cy="748.65002"
             r="10.23"
             id="circle351" />
        </g>
      </g>
      <g
         id="g359">
        <path
           fill="#07583d"
           d="m 278.146,680.752 c 24.044,0 81.681,41.255 43.678,68.043 -4.341,3.061 -8.605,5.588 -12.759,7.664 2.479,15.749 0.352,34.858 -24.585,34.858 -20.99,0 -24.445,-13.54 -22.587,-27.217 -8.259,-1.426 -13.145,-3.852 -13.145,-3.852 -39.169,-10.216 4.677,-75.136 26.307,-79.229 0.952,-0.179 1.985,-0.267 3.091,-0.267 m 0,-11.338 c -1.819,0 -3.568,0.156 -5.198,0.465 -14.603,2.764 -28.197,19.162 -33.364,26.085 -5.161,6.913 -17.23,24.955 -17.849,43.109 -0.543,15.938 7.88,27.501 23.151,31.874 1.096,0.477 2.896,1.197 5.307,1.963 0.454,7.776 2.901,14.242 7.318,19.301 6.053,6.931 15.126,10.445 26.968,10.445 12.446,0 22.042,-3.844 28.521,-11.423 5.993,-7.01 8.712,-16.562 8.118,-28.464 2.443,-1.46 4.862,-3.033 7.237,-4.708 7.65,-5.393 12.862,-11.776 15.491,-18.975 2.527,-6.92 2.6,-14.242 0.215,-21.764 -5.1,-16.085 -19.918,-28.036 -28.297,-33.729 -13.067,-8.878 -27.13,-14.179 -37.618,-14.179 z"
           id="path357" />
      </g>
    </g>
  </g>
</svg>
