<?xml version="1.0" encoding="UTF-8" standalone="no"?>
<!-- Created with Inkscape (http://www.inkscape.org/) -->

<svg
   width="170"
   height="170"
   viewBox="0 0 44.979165 44.979165"
   version="1.1"
   id="svg1112"
   xmlns:xlink="http://www.w3.org/1999/xlink"
   xmlns="http://www.w3.org/2000/svg"
   xmlns:svg="http://www.w3.org/2000/svg">
  <defs
     id="defs1109">
    <clipPath
       id="SVGID_18_">
      <use
         xlink:href="#SVGID_17_"
         overflow="visible"
         id="use517"
         x="0"
         y="0"
         width="100%"
         height="100%" />
    </clipPath>
    <path
       id="SVGID_17_"
       d="m 376.449,116.609 -5.125,38.75 9.25,19.25 c 2.47,3.315 41.384,10.603 43.296,15.395 5.67,2.74 16.28,5.343 30.811,-1.834 0.889,-3.945 51.108,-19.005 52.269,-22.185 l 3.875,-46.625 -23.375,-14.875 -83.125,0.5 z" />
    <clipPath
       id="SVGID_20_">
      <use
         xlink:href="#SVGID_19_"
         overflow="visible"
         id="use544"
         x="0"
         y="0"
         width="100%"
         height="100%" />
    </clipPath>
    <path
       id="SVGID_19_"
       d="m 396.057,327.923 c 16.963,6.422 15.968,9.796 21.581,17.331 9.367,12.577 14.06,27.139 5.958,46.478 0,0 1.586,10.457 21.085,7.604 13.175,-1.928 18.08,-8.631 18.08,-8.631 -9.81,-18.311 -7.957,-30.204 -2.646,-44.761 2.751,-7.54 9.621,-15.563 28.804,-22.27 l -49.538,-20.582 z" />
    <clipPath
       id="SVGID_22_">
      <use
         xlink:href="#SVGID_21_"
         overflow="visible"
         id="use569"
         x="0"
         y="0"
         width="100%"
         height="100%" />
    </clipPath>
    <path
       id="SVGID_21_"
       d="m 405.106,495.489 c 0.442,6.755 4.651,11.32 10.481,15.831 10.613,8.211 14.405,24.315 8.789,40.358 0,0 -0.691,8.188 16.169,7.917 17.684,-0.285 17.97,-6.275 17.97,-6.275 -5.705,-16.543 -2.497,-42.642 16.328,-51.199 6.574,-2.988 -7.486,-2.139 1.927,-5.348 L 437.884,475.83 Z" />
    <clipPath
       id="SVGID_12_">
      <use
         xlink:href="#SVGID_11_"
         overflow="visible"
         id="use445"
         x="0"
         y="0"
         width="100%"
         height="100%" />
    </clipPath>
    <path
       id="SVGID_11_"
       d="m 56.157,160.256 c 0,0 49.433,2.535 52.524,80.946 0,0 7.015,9.883 33.474,0 0,0 -14.145,-79.974 40.754,-86.016 0,0 5.921,-13.603 -4.833,-21.39 -6.892,-4.991 -9.291,-3.578 -15.923,-7.605 -6.654,-4.04 -3.327,-12.358 -13.784,-14.735 -10.932,-2.484 -13.546,6.892 -23.291,7.605 -9.029,0.661 -13.223,-8.271 -27.569,-6.179 -11.407,1.664 -6.892,9.744 -16.161,15.923 -7.283,4.855 -13.218,3.398 -18.05,7.778 -6.19,5.61 -6.626,18.267 -7.141,23.673 z" />
    <clipPath
       id="SVGID_14_">
      <use
         xlink:href="#SVGID_13_"
         overflow="visible"
         id="use472"
         x="0"
         y="0"
         width="100%"
         height="100%" />
    </clipPath>
    <path
       id="SVGID_13_"
       d="m 68.503,329.595 c 0,0 44.268,14.421 39.573,63.719 0,0 7.378,10.396 35.211,0 0,0 -5.03,-65.061 37.226,-80.822 0,0 -7.043,-3.019 -17.775,-5.701 -11.328,-2.832 -11.737,-18.445 -25.152,-14.756 -15.573,4.283 -17.101,6.708 -27.833,6.708 -6.676,0 -19.786,-7.378 -26.158,5.365 -6.372,12.743 -3.355,17.104 -15.092,25.487 z" />
    <clipPath
       id="SVGID_16_">
      <use
         xlink:href="#SVGID_15_"
         overflow="visible"
         id="use496"
         x="0"
         y="0"
         width="100%"
         height="100%" />
    </clipPath>
    <path
       id="SVGID_15_"
       d="m 87.824,499.484 c 0,0 31.134,14.591 27.333,54.5 0,0 5.333,10 23.333,0.667 0,0 1.667,-53 31.354,-65.357 0,0 -0.456,-8.984 -9.021,-9.643 -10.833,-0.833 -13.286,-8.029 -23,-9 -10.833,-1.083 -23.204,3.755 -29.333,10 -8.832,9 -20.332,5.667 -20.666,18.833 z" />
    <clipPath
       id="SVGID_6_">
      <use
         xlink:href="#SVGID_5_"
         overflow="visible"
         id="use301"
         x="0"
         y="0"
         width="100%"
         height="100%" />
    </clipPath>
    <path
       id="SVGID_5_"
       d="m 395.854,749.385 c 0,0 46.565,19.874 97.63,-9.211 52.823,-30.086 -34.626,-77.529 -61.66,-72.415 -27.035,5.115 -84.926,68.858 -35.97,81.626 z" />
  </defs>
  <g
     id="layer1">
    <g
       id="MUCHOMOR_3_2_"
       transform="matrix(0.26458333,0,0,0.26458333,-94.847567,-171.93154)">
      <path
         fill="#f5f5d2"
         d="m 423.312,730.331 c 0,0 -19.077,71.931 17.976,71.931 41.447,0 22.15,-71.931 22.15,-71.931"
         id="path294" />
      <path
         fill="#ed761b"
         d="m 395.854,749.385 c 0,0 46.565,19.874 97.63,-9.211 52.823,-30.086 -34.626,-77.529 -61.66,-72.415 -27.035,5.115 -84.926,68.858 -35.97,81.626 z"
         id="path296" />
      <g
         id="g322">
        <defs
           id="defs299">
          <path
             id="path3514"
             d="m 395.854,749.385 c 0,0 46.565,19.874 97.63,-9.211 52.823,-30.086 -34.626,-77.529 -61.66,-72.415 -27.035,5.115 -84.926,68.858 -35.97,81.626 z" />
        </defs>
        <clipPath
           id="clipPath3419">
          <use
             xlink:href="#SVGID_5_"
             overflow="visible"
             id="use3417"
             x="0"
             y="0"
             width="100%"
             height="100%" />
        </clipPath>
        <g
           clip-path="url(#SVGID_6_)"
           id="g320">
          <circle
             fill="#e6a76e"
             cx="406.57101"
             cy="704.77899"
             r="13.435"
             id="circle304" />
          <circle
             fill="#e6a76e"
             cx="431.82401"
             cy="667.76001"
             r="20.337999"
             id="circle306" />
          <circle
             fill="#e6a76e"
             cx="444.327"
             cy="717.16602"
             r="15.344"
             id="circle308" />
          <circle
             fill="#e6a76e"
             cx="485.457"
             cy="689.23102"
             r="21.433001"
             id="circle310" />
          <circle
             fill="#e6a76e"
             cx="408.405"
             cy="746.383"
             r="18.059999"
             id="circle312" />
          <circle
             fill="#e6a76e"
             cx="374.879"
             cy="722.08002"
             r="10.838"
             id="circle314" />
          <circle
             fill="#e6a76e"
             cx="467.92401"
             cy="748.85101"
             r="12.787"
             id="circle316" />
          <circle
             fill="#e6a76e"
             cx="496.29401"
             cy="728.32397"
             r="10.838"
             id="circle318" />
        </g>
      </g>
      <g
         id="g326">
        <path
           fill="#07583d"
           d="m 436.341,667.377 c 30.968,0 107.307,44.226 57.144,72.797 -8.984,5.117 -17.828,8.715 -26.305,11.176 2.29,21.229 0.733,50.912 -25.893,50.912 -22.456,0 -24.294,-26.418 -22.258,-47.234 -14.279,-1.847 -23.175,-5.643 -23.175,-5.643 -48.956,-12.768 8.935,-76.511 35.97,-81.626 1.362,-0.258 2.874,-0.382 4.517,-0.382 m 0,-11.339 c -2.363,0 -4.592,0.195 -6.624,0.58 -11.848,2.241 -26.985,12.008 -40.492,26.126 -8.583,8.972 -23.076,26.771 -23.704,45.188 -0.264,7.756 2.065,14.804 6.735,20.383 4.588,5.481 11.319,9.465 20.018,11.85 1.982,0.771 7.219,2.66 14.822,4.304 -0.387,17.734 3.229,30.91 10.793,39.25 5.864,6.465 13.955,9.883 23.398,9.883 10.834,0 20.012,-3.843 26.54,-11.113 8.363,-9.314 12.162,-23.806 11.33,-43.156 6.827,-2.525 13.504,-5.64 19.938,-9.305 24.107,-13.73 23.685,-30.972 21.286,-40.027 -4.821,-18.207 -24.56,-31.862 -35.896,-38.382 -16.709,-9.611 -35.157,-15.581 -48.144,-15.581 z"
           id="path324" />
      </g>
    </g>
  </g>
</svg>
