<?xml version="1.0" encoding="UTF-8" standalone="no"?>
<!-- Created with Inkscape (http://www.inkscape.org/) -->

<svg
   width="170"
   height="170"
   viewBox="0 0 44.979165 44.979165"
   version="1.1"
   id="svg1112"
   xmlns:xlink="http://www.w3.org/1999/xlink"
   xmlns="http://www.w3.org/2000/svg"
   xmlns:svg="http://www.w3.org/2000/svg">
  <defs
     id="defs1109">
    <clipPath
       id="SVGID_18_">
      <use
         xlink:href="#SVGID_17_"
         overflow="visible"
         id="use517"
         x="0"
         y="0"
         width="100%"
         height="100%" />
    </clipPath>
    <path
       id="SVGID_17_"
       d="m 376.449,116.609 -5.125,38.75 9.25,19.25 c 2.47,3.315 41.384,10.603 43.296,15.395 5.67,2.74 16.28,5.343 30.811,-1.834 0.889,-3.945 51.108,-19.005 52.269,-22.185 l 3.875,-46.625 -23.375,-14.875 -83.125,0.5 z" />
    <clipPath
       id="SVGID_20_">
      <use
         xlink:href="#SVGID_19_"
         overflow="visible"
         id="use544"
         x="0"
         y="0"
         width="100%"
         height="100%" />
    </clipPath>
    <path
       id="SVGID_19_"
       d="m 396.057,327.923 c 16.963,6.422 15.968,9.796 21.581,17.331 9.367,12.577 14.06,27.139 5.958,46.478 0,0 1.586,10.457 21.085,7.604 13.175,-1.928 18.08,-8.631 18.08,-8.631 -9.81,-18.311 -7.957,-30.204 -2.646,-44.761 2.751,-7.54 9.621,-15.563 28.804,-22.27 l -49.538,-20.582 z" />
    <clipPath
       id="SVGID_22_">
      <use
         xlink:href="#SVGID_21_"
         overflow="visible"
         id="use569"
         x="0"
         y="0"
         width="100%"
         height="100%" />
    </clipPath>
    <path
       id="SVGID_21_"
       d="m 405.106,495.489 c 0.442,6.755 4.651,11.32 10.481,15.831 10.613,8.211 14.405,24.315 8.789,40.358 0,0 -0.691,8.188 16.169,7.917 17.684,-0.285 17.97,-6.275 17.97,-6.275 -5.705,-16.543 -2.497,-42.642 16.328,-51.199 6.574,-2.988 -7.486,-2.139 1.927,-5.348 L 437.884,475.83 Z" />
    <clipPath
       id="SVGID_12_">
      <use
         xlink:href="#SVGID_11_"
         overflow="visible"
         id="use445"
         x="0"
         y="0"
         width="100%"
         height="100%" />
    </clipPath>
    <path
       id="SVGID_11_"
       d="m 56.157,160.256 c 0,0 49.433,2.535 52.524,80.946 0,0 7.015,9.883 33.474,0 0,0 -14.145,-79.974 40.754,-86.016 0,0 5.921,-13.603 -4.833,-21.39 -6.892,-4.991 -9.291,-3.578 -15.923,-7.605 -6.654,-4.04 -3.327,-12.358 -13.784,-14.735 -10.932,-2.484 -13.546,6.892 -23.291,7.605 -9.029,0.661 -13.223,-8.271 -27.569,-6.179 -11.407,1.664 -6.892,9.744 -16.161,15.923 -7.283,4.855 -13.218,3.398 -18.05,7.778 -6.19,5.61 -6.626,18.267 -7.141,23.673 z" />
  </defs>
  <g
     id="layer1">
    <g
       id="CHANTERELLE_3"
       transform="matrix(0.26458333,0,0,0.26458333,-9.4106537,-24.68999)">
      <g
         id="g440">
        <path
           fill="#ffb700"
           d="m 121.717,251.264 c -12.225,-0.001 -16.854,-5.647 -17.658,-6.779 -0.637,-0.897 -1,-1.96 -1.043,-3.06 -2.873,-72.885 -46.787,-80.351 -47.23,-80.417 -2.977,-0.449 -5.083,-3.147 -4.797,-6.144 0.051,-0.539 0.097,-1.104 0.144,-1.688 0.459,-5.68 1.152,-14.263 8.359,-20.793 3.476,-3.149 7.258,-4.146 10.596,-5.025 2.732,-0.72 5.313,-1.4 8.117,-3.269 2.721,-1.814 3.609,-3.732 4.733,-6.16 1.813,-3.915 4.294,-9.276 13.754,-10.656 1.718,-0.25 3.41,-0.377 5.028,-0.377 7.105,0 11.909,2.374 15.769,4.282 2.908,1.438 4.65,2.25 6.638,2.25 0.176,0 0.356,-0.006 0.539,-0.02 2.735,-0.2 4.7,-1.527 7.188,-3.208 3.186,-2.152 7.15,-4.83 13.01,-4.83 1.528,0 3.13,0.188 4.762,0.559 8.903,2.023 11.302,7.705 12.889,11.464 0.983,2.329 1.46,3.272 2.581,3.953 2.446,1.485 4.111,2.041 6.04,2.683 2.708,0.902 5.776,1.925 10.266,5.176 11.427,8.275 9.383,22.093 6.706,28.244 -0.811,1.863 -2.558,3.15 -4.578,3.373 -11.218,1.235 -19.684,5.85 -25.881,14.109 -17.119,22.813 -9.984,64.866 -9.91,65.289 0.472,2.69 -1.041,5.338 -3.6,6.294 -8.44,3.152 -15.983,4.751 -22.42,4.751 -10e-4,-10e-4 -0.002,-10e-4 -0.002,-10e-4 z"
           id="path436" />
        <path
           fill="#4c4f44"
           d="m 144.864,111.038 c 1.072,0 2.232,0.128 3.505,0.418 10.457,2.376 7.13,10.695 13.784,14.735 6.633,4.027 9.031,2.614 15.923,7.605 10.753,7.787 4.833,21.39 4.833,21.39 -54.899,6.042 -40.754,86.016 -40.754,86.016 -8.821,3.295 -15.479,4.393 -20.438,4.393 -9.917,0 -13.036,-4.393 -13.036,-4.393 -3.091,-78.411 -52.049,-85.8 -52.049,-85.8 0.515,-5.405 0.476,-13.208 6.667,-18.818 4.833,-4.379 10.768,-2.923 18.05,-7.778 9.269,-6.179 4.753,-14.26 16.161,-15.923 1.51,-0.22 2.906,-0.318 4.209,-0.318 10.629,0 14.933,6.533 22.408,6.533 0.311,0 0.629,-0.012 0.952,-0.035 8.609,-0.632 11.652,-8.025 19.785,-8.025 m 0,-11.338 v 0 c -7.596,0 -12.764,3.491 -16.185,5.801 -2.371,1.602 -3.301,2.169 -4.428,2.252 -0.043,0.003 -0.085,0.004 -0.125,0.004 -0.76,0 -2.395,-0.808 -4.126,-1.664 -4.158,-2.055 -9.852,-4.869 -18.282,-4.869 -1.891,0 -3.857,0.147 -5.845,0.437 -12.498,1.822 -16.13,9.668 -18.081,13.884 -1.063,2.296 -1.396,2.934 -2.733,3.825 -2.017,1.345 -3.862,1.831 -6.417,2.503 -3.569,0.94 -8.458,2.229 -12.958,6.307 -8.869,8.038 -9.704,18.366 -10.203,24.538 -0.045,0.556 -0.088,1.093 -0.137,1.607 -0.58,6.084 3.484,11.49 9.536,12.28 2.515,0.476 39.855,8.686 42.471,75.043 0.086,2.198 0.811,4.324 2.084,6.118 1.527,2.15 7.646,9.167 22.281,9.167 7.118,0 15.329,-1.719 24.406,-5.109 5.123,-1.914 8.15,-7.211 7.198,-12.596 -1.928,-11.078 -4.097,-43.649 8.876,-60.913 5.205,-6.926 12.385,-10.805 21.953,-11.858 4.04,-0.445 7.533,-3.018 9.156,-6.745 3.307,-7.597 5.769,-24.708 -8.579,-35.099 -5.196,-3.763 -8.857,-4.982 -11.799,-5.963 -1.677,-0.559 -2.824,-0.941 -4.511,-1.924 -0.194,-0.388 -0.468,-1.036 -0.68,-1.539 -1.661,-3.934 -5.117,-12.12 -16.855,-14.787 -2.042,-0.465 -4.067,-0.7 -6.017,-0.7 z"
           id="path438" />
      </g>
      <g
         id="g460">
        <defs
           id="defs443">
          <path
             id="path2699"
             d="m 56.157,160.256 c 0,0 49.433,2.535 52.524,80.946 0,0 7.015,9.883 33.474,0 0,0 -14.145,-79.974 40.754,-86.016 0,0 5.921,-13.603 -4.833,-21.39 -6.892,-4.991 -9.291,-3.578 -15.923,-7.605 -6.654,-4.04 -3.327,-12.358 -13.784,-14.735 -10.932,-2.484 -13.546,6.892 -23.291,7.605 -9.029,0.661 -13.223,-8.271 -27.569,-6.179 -11.407,1.664 -6.892,9.744 -16.161,15.923 -7.283,4.855 -13.218,3.398 -18.05,7.778 -6.19,5.61 -6.626,18.267 -7.141,23.673 z" />
        </defs>
        <clipPath
           id="clipPath2620">
          <use
             xlink:href="#SVGID_11_"
             overflow="visible"
             id="use2618"
             x="0"
             y="0"
             width="100%"
             height="100%" />
        </clipPath>
        <g
           clip-path="url(#SVGID_12_)"
           id="g458">
          <path
             fill="#e8a700"
             d="m 54.824,143.984 c 24.241,6.654 30.565,14.291 42.052,28.708 0,0 -17.239,-35.727 -24.052,-45.708"
             id="path448" />
          <path
             fill="#e8a700"
             d="m 74.854,124.448 c 21.231,11.091 23.607,14.26 34.698,43.413 0,0 -11.734,-46.519 -2.228,-58.876"
             id="path450" />
          <path
             fill="#e8a700"
             d="m 110.344,110.822 c 14.211,20.736 11.091,33.589 13.309,54.187 0,0 10.566,-45.887 17.672,-55.024 z"
             id="path452" />
          <path
             fill="#e8a700"
             d="m 145.824,105.984 c 5.339,24.565 -3.147,40.696 -8.863,60.609 0,0 23.663,-42.658 35.863,-43.609 z"
             id="path454" />
          <path
             fill="#e8a700"
             d="m 175.324,124.984 c -8.873,24.4 -10.14,15.844 -22.815,35.174 0,0 19.753,-19.159 37.815,-15.674 z"
             id="path456" />
        </g>
      </g>
    </g>
  </g>
</svg>
