<?xml version="1.0" encoding="UTF-8" standalone="no"?>
<!-- Created with Inkscape (http://www.inkscape.org/) -->

<svg
   width="170"
   height="170"
   viewBox="0 0 44.979165 44.979165"
   version="1.1"
   id="svg1112"
   xmlns:xlink="http://www.w3.org/1999/xlink"
   xmlns="http://www.w3.org/2000/svg"
   xmlns:svg="http://www.w3.org/2000/svg">
  <defs
     id="defs1109">
    <clipPath
       id="SVGID_18_">
      <use
         xlink:href="#SVGID_17_"
         overflow="visible"
         id="use517"
         x="0"
         y="0"
         width="100%"
         height="100%" />
    </clipPath>
    <path
       id="SVGID_17_"
       d="m 376.449,116.609 -5.125,38.75 9.25,19.25 c 2.47,3.315 41.384,10.603 43.296,15.395 5.67,2.74 16.28,5.343 30.811,-1.834 0.889,-3.945 51.108,-19.005 52.269,-22.185 l 3.875,-46.625 -23.375,-14.875 -83.125,0.5 z" />
    <clipPath
       id="SVGID_20_">
      <use
         xlink:href="#SVGID_19_"
         overflow="visible"
         id="use544"
         x="0"
         y="0"
         width="100%"
         height="100%" />
    </clipPath>
    <path
       id="SVGID_19_"
       d="m 396.057,327.923 c 16.963,6.422 15.968,9.796 21.581,17.331 9.367,12.577 14.06,27.139 5.958,46.478 0,0 1.586,10.457 21.085,7.604 13.175,-1.928 18.08,-8.631 18.08,-8.631 -9.81,-18.311 -7.957,-30.204 -2.646,-44.761 2.751,-7.54 9.621,-15.563 28.804,-22.27 l -49.538,-20.582 z" />
    <clipPath
       id="SVGID_22_">
      <use
         xlink:href="#SVGID_21_"
         overflow="visible"
         id="use569"
         x="0"
         y="0"
         width="100%"
         height="100%" />
    </clipPath>
    <path
       id="SVGID_21_"
       d="m 405.106,495.489 c 0.442,6.755 4.651,11.32 10.481,15.831 10.613,8.211 14.405,24.315 8.789,40.358 0,0 -0.691,8.188 16.169,7.917 17.684,-0.285 17.97,-6.275 17.97,-6.275 -5.705,-16.543 -2.497,-42.642 16.328,-51.199 6.574,-2.988 -7.486,-2.139 1.927,-5.348 L 437.884,475.83 Z" />
    <clipPath
       id="SVGID_12_">
      <use
         xlink:href="#SVGID_11_"
         overflow="visible"
         id="use445"
         x="0"
         y="0"
         width="100%"
         height="100%" />
    </clipPath>
    <path
       id="SVGID_11_"
       d="m 56.157,160.256 c 0,0 49.433,2.535 52.524,80.946 0,0 7.015,9.883 33.474,0 0,0 -14.145,-79.974 40.754,-86.016 0,0 5.921,-13.603 -4.833,-21.39 -6.892,-4.991 -9.291,-3.578 -15.923,-7.605 -6.654,-4.04 -3.327,-12.358 -13.784,-14.735 -10.932,-2.484 -13.546,6.892 -23.291,7.605 -9.029,0.661 -13.223,-8.271 -27.569,-6.179 -11.407,1.664 -6.892,9.744 -16.161,15.923 -7.283,4.855 -13.218,3.398 -18.05,7.778 -6.19,5.61 -6.626,18.267 -7.141,23.673 z" />
    <clipPath
       id="SVGID_14_">
      <use
         xlink:href="#SVGID_13_"
         overflow="visible"
         id="use472"
         x="0"
         y="0"
         width="100%"
         height="100%" />
    </clipPath>
    <path
       id="SVGID_13_"
       d="m 68.503,329.595 c 0,0 44.268,14.421 39.573,63.719 0,0 7.378,10.396 35.211,0 0,0 -5.03,-65.061 37.226,-80.822 0,0 -7.043,-3.019 -17.775,-5.701 -11.328,-2.832 -11.737,-18.445 -25.152,-14.756 -15.573,4.283 -17.101,6.708 -27.833,6.708 -6.676,0 -19.786,-7.378 -26.158,5.365 -6.372,12.743 -3.355,17.104 -15.092,25.487 z" />
  </defs>
  <g
     id="layer1">
    <g
       id="CHANTERELLE_2"
       transform="matrix(0.26458333,0,0,0.26458333,-10.44551,-68.713613)">
      <g
         id="g467">
        <path
           fill="#ffb700"
           d="m 121.788,403.604 c -12.715,-10e-4 -17.503,-5.837 -18.334,-7.008 -0.788,-1.109 -1.15,-2.465 -1.021,-3.82 1.771,-18.6 -3.695,-33.962 -16.248,-45.662 -9.454,-8.811 -19.339,-12.097 -19.438,-12.129 -2.034,-0.663 -3.522,-2.414 -3.848,-4.529 -0.325,-2.114 0.567,-4.232 2.309,-5.475 6.34,-4.529 7.137,-6.962 8.883,-12.294 0.952,-2.907 2.137,-6.526 4.432,-11.115 3.475,-6.95 9.34,-10.624 16.959,-10.624 3.485,0 6.768,0.714 9.664,1.343 1.767,0.384 3.594,0.781 4.605,0.781 6.107,0 8.414,-0.782 13.987,-2.672 3.042,-1.032 6.829,-2.316 12.343,-3.833 1.843,-0.507 3.631,-0.764 5.315,-0.764 7.851,0 12.018,5.17 15.367,9.325 2.342,2.906 4.365,5.416 7.348,6.161 11.045,2.761 18.329,5.86 18.633,5.99 2.13,0.913 3.49,3.03 3.434,5.347 -0.055,2.316 -1.515,4.366 -3.686,5.176 -37.818,14.106 -33.602,74.465 -33.555,75.073 0.195,2.52 -1.301,4.864 -3.668,5.748 -8.845,3.304 -16.745,4.979 -23.481,4.979 0.001,0.002 0.001,0.002 0,0.002 z"
           id="path463" />
        <path
           fill="#4c4f44"
           d="m 141.397,291.474 c 9.808,0 11.198,12.781 21.34,15.317 10.732,2.683 17.775,5.701 17.775,5.701 -42.256,15.762 -37.226,80.822 -37.226,80.822 -9.279,3.466 -16.282,4.621 -21.499,4.621 -10.432,0 -13.712,-4.621 -13.712,-4.621 4.695,-49.298 -39.573,-63.719 -39.573,-63.719 11.737,-8.383 8.72,-12.744 15.091,-25.487 2.953,-5.906 7.352,-7.49 11.889,-7.49 5.252,0 10.688,2.125 14.27,2.125 10.732,0 12.26,-2.425 27.833,-6.708 1.405,-0.387 2.665,-0.561 3.812,-0.561 m 0.001,-11.339 v 0 c -2.191,0 -4.486,0.325 -6.818,0.966 -5.675,1.561 -9.549,2.875 -12.662,3.931 -5.358,1.817 -6.985,2.369 -12.125,2.372 -0.598,-0.034 -2.239,-0.391 -3.441,-0.652 -3.018,-0.656 -6.774,-1.473 -10.869,-1.473 -9.771,0 -17.594,4.886 -22.03,13.758 -2.482,4.963 -3.739,8.802 -4.749,11.887 -1.587,4.846 -1.964,5.997 -6.791,9.445 -3.501,2.5 -5.348,6.748 -4.669,10.996 0.678,4.24 3.63,7.713 7.723,9.004 1.92,0.66 35.542,12.813 31.822,51.871 -0.258,2.709 0.467,5.42 2.042,7.64 1.114,1.569 7.456,9.395 22.958,9.395 7.417,0 15.985,-1.795 25.467,-5.337 4.734,-1.768 7.727,-6.457 7.337,-11.496 -0.041,-0.548 -3.799,-56.761 29.884,-69.325 4.342,-1.62 7.262,-5.719 7.373,-10.352 0.111,-4.633 -2.609,-8.868 -6.869,-10.693 -0.322,-0.138 -8.01,-3.409 -19.492,-6.279 -1.058,-0.265 -2.393,-1.842 -4.309,-4.219 -3.45,-4.279 -9.22,-11.438 -19.782,-11.439 z"
           id="path465" />
      </g>
      <g
         id="g485">
        <defs
           id="defs470">
          <path
             id="path2947"
             d="m 68.503,329.595 c 0,0 44.268,14.421 39.573,63.719 0,0 7.378,10.396 35.211,0 0,0 -5.03,-65.061 37.226,-80.822 0,0 -7.043,-3.019 -17.775,-5.701 -11.328,-2.832 -11.737,-18.445 -25.152,-14.756 -15.573,4.283 -17.101,6.708 -27.833,6.708 -6.676,0 -19.786,-7.378 -26.158,5.365 -6.372,12.743 -3.355,17.104 -15.092,25.487 z" />
        </defs>
        <clipPath
           id="clipPath2872">
          <use
             xlink:href="#SVGID_13_"
             overflow="visible"
             id="use2870"
             x="0"
             y="0"
             width="100%"
             height="100%" />
        </clipPath>
        <g
           clip-path="url(#SVGID_14_)"
           id="g483">
          <path
             fill="#e8a700"
             d="m 71.324,316.484 c 0,0 21.525,4.902 34.25,23.5 3.25,4.75 -17.5,-35.25 -15,-48"
             id="path475" />
          <path
             fill="#e8a700"
             d="m 92.324,287.484 c 0,0 19.5,21.5 24.5,44.5 2.574,11.84 2.167,-34 8.5,-46"
             id="path477" />
          <path
             fill="#e8a700"
             d="m 129.574,290.484 c 0,0 5.139,20.114 1.917,42.417 -1.544,10.686 8.554,-33.87 20.833,-42.917"
             id="path479" />
          <path
             fill="#e8a700"
             d="m 151.324,292.484 c 6.333,8.667 2.089,22.96 -3.833,36.5 -2.333,5.333 19,-24.667 34.333,-23"
             id="path481" />
        </g>
      </g>
    </g>
  </g>
</svg>
