<?xml version="1.0" encoding="UTF-8" standalone="no"?>
<!-- Created with Inkscape (http://www.inkscape.org/) -->

<svg
   width="170"
   height="170"
   viewBox="0 0 44.979165 44.979165"
   version="1.1"
   id="svg1112"
   xmlns:xlink="http://www.w3.org/1999/xlink"
   xmlns="http://www.w3.org/2000/svg"
   xmlns:svg="http://www.w3.org/2000/svg">
  <defs
     id="defs1109">
    <clipPath
       id="SVGID_18_">
      <use
         xlink:href="#SVGID_17_"
         overflow="visible"
         id="use517"
         x="0"
         y="0"
         width="100%"
         height="100%" />
    </clipPath>
    <path
       id="SVGID_17_"
       d="m 376.449,116.609 -5.125,38.75 9.25,19.25 c 2.47,3.315 41.384,10.603 43.296,15.395 5.67,2.74 16.28,5.343 30.811,-1.834 0.889,-3.945 51.108,-19.005 52.269,-22.185 l 3.875,-46.625 -23.375,-14.875 -83.125,0.5 z" />
    <clipPath
       id="SVGID_20_">
      <use
         xlink:href="#SVGID_19_"
         overflow="visible"
         id="use544"
         x="0"
         y="0"
         width="100%"
         height="100%" />
    </clipPath>
    <path
       id="SVGID_19_"
       d="m 396.057,327.923 c 16.963,6.422 15.968,9.796 21.581,17.331 9.367,12.577 14.06,27.139 5.958,46.478 0,0 1.586,10.457 21.085,7.604 13.175,-1.928 18.08,-8.631 18.08,-8.631 -9.81,-18.311 -7.957,-30.204 -2.646,-44.761 2.751,-7.54 9.621,-15.563 28.804,-22.27 l -49.538,-20.582 z" />
    <clipPath
       id="SVGID_22_">
      <use
         xlink:href="#SVGID_21_"
         overflow="visible"
         id="use569"
         x="0"
         y="0"
         width="100%"
         height="100%" />
    </clipPath>
    <path
       id="SVGID_21_"
       d="m 405.106,495.489 c 0.442,6.755 4.651,11.32 10.481,15.831 10.613,8.211 14.405,24.315 8.789,40.358 0,0 -0.691,8.188 16.169,7.917 17.684,-0.285 17.97,-6.275 17.97,-6.275 -5.705,-16.543 -2.497,-42.642 16.328,-51.199 6.574,-2.988 -7.486,-2.139 1.927,-5.348 L 437.884,475.83 Z" />
    <clipPath
       id="SVGID_12_">
      <use
         xlink:href="#SVGID_11_"
         overflow="visible"
         id="use445"
         x="0"
         y="0"
         width="100%"
         height="100%" />
    </clipPath>
    <path
       id="SVGID_11_"
       d="m 56.157,160.256 c 0,0 49.433,2.535 52.524,80.946 0,0 7.015,9.883 33.474,0 0,0 -14.145,-79.974 40.754,-86.016 0,0 5.921,-13.603 -4.833,-21.39 -6.892,-4.991 -9.291,-3.578 -15.923,-7.605 -6.654,-4.04 -3.327,-12.358 -13.784,-14.735 -10.932,-2.484 -13.546,6.892 -23.291,7.605 -9.029,0.661 -13.223,-8.271 -27.569,-6.179 -11.407,1.664 -6.892,9.744 -16.161,15.923 -7.283,4.855 -13.218,3.398 -18.05,7.778 -6.19,5.61 -6.626,18.267 -7.141,23.673 z" />
    <clipPath
       id="SVGID_14_">
      <use
         xlink:href="#SVGID_13_"
         overflow="visible"
         id="use472"
         x="0"
         y="0"
         width="100%"
         height="100%" />
    </clipPath>
    <path
       id="SVGID_13_"
       d="m 68.503,329.595 c 0,0 44.268,14.421 39.573,63.719 0,0 7.378,10.396 35.211,0 0,0 -5.03,-65.061 37.226,-80.822 0,0 -7.043,-3.019 -17.775,-5.701 -11.328,-2.832 -11.737,-18.445 -25.152,-14.756 -15.573,4.283 -17.101,6.708 -27.833,6.708 -6.676,0 -19.786,-7.378 -26.158,5.365 -6.372,12.743 -3.355,17.104 -15.092,25.487 z" />
    <clipPath
       id="SVGID_16_">
      <use
         xlink:href="#SVGID_15_"
         overflow="visible"
         id="use496"
         x="0"
         y="0"
         width="100%"
         height="100%" />
    </clipPath>
    <path
       id="SVGID_15_"
       d="m 87.824,499.484 c 0,0 31.134,14.591 27.333,54.5 0,0 5.333,10 23.333,0.667 0,0 1.667,-53 31.354,-65.357 0,0 -0.456,-8.984 -9.021,-9.643 -10.833,-0.833 -13.286,-8.029 -23,-9 -10.833,-1.083 -23.204,3.755 -29.333,10 -8.832,9 -20.332,5.667 -20.666,18.833 z" />
  </defs>
  <g
     id="layer1">
    <g
       id="CHANTERELLE_1"
       transform="matrix(0.26458333,0,0,0.26458333,-11.597829,-113.65613)">
      <g
         id="LLL">
        <path
           fill="#ffb700"
           d="m 124.92,564.303 c -10.385,0 -14.347,-6.867 -14.765,-7.65 -0.524,-0.982 -0.747,-2.097 -0.641,-3.206 3.383,-35.521 -23.821,-48.7 -24.096,-48.829 -2.039,-0.955 -3.319,-3.026 -3.262,-5.277 0.296,-11.7 7.89,-14.945 13.434,-17.315 3.196,-1.366 6.215,-2.657 8.854,-5.346 6.957,-7.088 19.118,-11.85 30.261,-11.85 1.247,0 2.486,0.061 3.683,0.18 6.019,0.602 9.836,3.036 13.205,5.184 3.051,1.945 5.461,3.481 9.666,3.805 10.711,0.824 14.004,10.177 14.249,15.008 0.121,2.391 -1.273,4.601 -3.483,5.521 -26.014,10.828 -27.851,59.808 -27.867,60.302 -0.064,2.052 -1.234,3.91 -3.057,4.855 -5.91,3.064 -11.354,4.618 -16.181,4.618 0,0 0.001,0 0,0 z"
           id="path488" />
        <path
           fill="#4c4f44"
           d="m 134.706,470.499 c 1.049,0 2.091,0.05 3.119,0.152 9.714,0.971 12.167,8.167 23,9 8.566,0.659 9.021,9.643 9.021,9.643 -29.688,12.357 -31.354,65.357 -31.354,65.357 -5.727,2.97 -10.172,3.982 -13.571,3.982 -7.283,0 -9.763,-4.649 -9.763,-4.649 3.801,-39.909 -27.333,-54.5 -27.333,-54.5 0.333,-13.167 11.834,-9.833 20.667,-18.833 5.547,-5.652 16.208,-10.152 26.214,-10.152 m 0,-11.338 c -12.566,0 -26.353,5.445 -34.307,13.548 -1.853,1.888 -4.14,2.866 -7.036,4.104 -5.761,2.462 -16.485,7.046 -16.874,22.385 -0.116,4.561 2.329,8.661 6.483,10.536 1.538,0.771 23.818,12.513 20.897,43.176 -0.211,2.217 0.235,4.447 1.283,6.411 2.621,4.914 9.37,10.651 19.767,10.651 5.744,0 12.065,-1.768 18.79,-5.254 3.646,-1.891 5.985,-5.604 6.114,-9.709 0.436,-12.714 5.666,-47.457 24.379,-55.246 4.421,-1.84 7.209,-6.259 6.967,-11.042 -0.478,-9.417 -7.321,-19.439 -19.477,-20.374 -2.676,-0.206 -4.096,-1.048 -7.053,-2.933 -3.514,-2.24 -8.326,-5.308 -15.688,-6.044 -1.383,-0.14 -2.811,-0.209 -4.245,-0.209 z"
           id="path490" />
      </g>
      <g
         id="g507">
        <defs
           id="defs494">
          <path
             id="path3191"
             d="m 87.824,499.484 c 0,0 31.134,14.591 27.333,54.5 0,0 5.333,10 23.333,0.667 0,0 1.667,-53 31.354,-65.357 0,0 -0.456,-8.984 -9.021,-9.643 -10.833,-0.833 -13.286,-8.029 -23,-9 -10.833,-1.083 -23.204,3.755 -29.333,10 -8.832,9 -20.332,5.667 -20.666,18.833 z" />
        </defs>
        <clipPath
           id="clipPath3120">
          <use
             xlink:href="#SVGID_15_"
             overflow="visible"
             id="use3118"
             x="0"
             y="0"
             width="100%"
             height="100%" />
        </clipPath>
        <g
           clip-path="url(#SVGID_16_)"
           id="g505">
          <path
             fill="#e8a700"
             d="m 89.991,487.651 c 0,0 14.333,3.333 25,26.333 2.421,5.221 -8.5,-27.583 -6,-40.333"
             id="path499" />
          <path
             fill="#e8a700"
             d="m 114.658,473.318 c 0,0 8.333,8.333 12.333,32.667 0.934,5.679 5.284,-28.74 13.667,-38.667"
             id="path501" />
          <path
             fill="#e8a700"
             d="m 152.666,466.728 c -4.341,11.923 -13.508,46.255 -11.341,40.923 8.667,-21.333 28.667,-25.667 28.667,-25.667 z"
             id="path503" />
        </g>
      </g>
    </g>
  </g>
</svg>
