<?xml version="1.0" encoding="UTF-8" standalone="no"?>
<!-- Created with Inkscape (http://www.inkscape.org/) -->

<svg
   width="170"
   height="170"
   viewBox="0 0 44.979165 44.979165"
   version="1.1"
   id="svg1112"
   xmlns:xlink="http://www.w3.org/1999/xlink"
   xmlns="http://www.w3.org/2000/svg"
   xmlns:svg="http://www.w3.org/2000/svg">
  <defs
     id="defs1109">
    <clipPath
       id="SVGID_18_">
      <use
         xlink:href="#SVGID_17_"
         overflow="visible"
         id="use517"
         x="0"
         y="0"
         width="100%"
         height="100%" />
    </clipPath>
    <path
       id="SVGID_17_"
       d="m 376.449,116.609 -5.125,38.75 9.25,19.25 c 2.47,3.315 41.384,10.603 43.296,15.395 5.67,2.74 16.28,5.343 30.811,-1.834 0.889,-3.945 51.108,-19.005 52.269,-22.185 l 3.875,-46.625 -23.375,-14.875 -83.125,0.5 z" />
    <clipPath
       id="SVGID_20_">
      <use
         xlink:href="#SVGID_19_"
         overflow="visible"
         id="use544"
         x="0"
         y="0"
         width="100%"
         height="100%" />
    </clipPath>
    <path
       id="SVGID_19_"
       d="m 396.057,327.923 c 16.963,6.422 15.968,9.796 21.581,17.331 9.367,12.577 14.06,27.139 5.958,46.478 0,0 1.586,10.457 21.085,7.604 13.175,-1.928 18.08,-8.631 18.08,-8.631 -9.81,-18.311 -7.957,-30.204 -2.646,-44.761 2.751,-7.54 9.621,-15.563 28.804,-22.27 l -49.538,-20.582 z" />
    <clipPath
       id="SVGID_22_">
      <use
         xlink:href="#SVGID_21_"
         overflow="visible"
         id="use569"
         x="0"
         y="0"
         width="100%"
         height="100%" />
    </clipPath>
    <path
       id="SVGID_21_"
       d="m 405.106,495.489 c 0.442,6.755 4.651,11.32 10.481,15.831 10.613,8.211 14.405,24.315 8.789,40.358 0,0 -0.691,8.188 16.169,7.917 17.684,-0.285 17.97,-6.275 17.97,-6.275 -5.705,-16.543 -2.497,-42.642 16.328,-51.199 6.574,-2.988 -7.486,-2.139 1.927,-5.348 L 437.884,475.83 Z" />
  </defs>
  <g
     id="layer1">
    <g
       id="CORTINARIUS_2"
       transform="matrix(0.26458333,0,0,0.26458333,-53.353808,-69.227434)">
      <path
         fill="#e8da7d"
         d="m 275.742,333.623 c 0,12.828 -29.703,61.914 7.875,66.208 37.689,4.306 14.359,-43.326 13.24,-61.558"
         id="path410" />
      <path
         fill="#c48c00"
         d="m 242.102,341.496 c 13.243,7.874 74.082,21.473 93.765,0.716 19.684,-20.756 -13.957,-23.978 -22.904,-35.072 -11.984,-14.858 -32.925,-21.114 -52.607,-2.147 -19.684,18.967 -43.102,21.729 -18.254,36.503 z"
         id="path412" />
      <path
         opacity="0.15"
         fill="#ffffff"
         d="m 304.753,311.546 c -3.488,2.013 -4.004,37.443 9.597,33.618 14.125,-3.973 18.431,-6.106 22.188,-14.249 2.184,-4.731 -13.912,-8.6 -19.237,-12.167 -5.143,-3.445 -8.394,-9.599 -12.548,-7.202 z"
         id="path414" />
      <g
         id="g418">
        <path
           fill="#3a4f28"
           d="m 286.178,293.19 c 10.542,0 20.069,5.625 26.784,13.95 8.947,11.095 42.588,14.316 22.904,35.072 -7.593,8.008 -21.313,10.899 -36.061,10.981 5.063,20.135 12.579,46.911 -11.668,46.911 -1.397,0 -2.905,-0.089 -4.521,-0.274 -27.398,-3.131 -19.031,-30.069 -12.486,-49.409 -13.121,-2.45 -24.219,-6.064 -29.029,-8.926 -24.848,-14.774 -1.43,-17.536 18.253,-36.503 8.655,-8.339 17.551,-11.802 25.824,-11.802 m 0,-11.339 c -11.874,0 -23.523,5.179 -33.691,14.977 -5.106,4.921 -10.655,8.711 -15.55,12.056 -8.862,6.055 -17.232,11.773 -16.909,22.037 0.301,9.557 8.397,15.635 16.278,20.321 4.372,2.6 11.656,5.28 20.269,7.541 -3.561,12.631 -5.749,27.376 1.423,38.681 4.925,7.764 13.112,12.35 24.332,13.632 2.017,0.23 3.971,0.347 5.808,0.347 12.282,0 18.962,-5.266 22.401,-9.683 7.843,-10.07 6.494,-24.245 3.45,-38.193 13.226,-1.86 23.319,-6.397 30.104,-13.554 7.163,-7.554 10.164,-15.118 8.918,-22.481 -1.937,-11.441 -12.803,-17.052 -21.533,-21.56 -3.537,-1.826 -8.382,-4.328 -9.69,-5.95 -9.314,-11.548 -22.294,-18.171 -35.61,-18.171 z"
           id="path416" />
      </g>
    </g>
  </g>
</svg>
