<?xml version="1.0" encoding="UTF-8" standalone="no"?>
<!-- Created with Inkscape (http://www.inkscape.org/) -->

<svg
   width="170"
   height="170"
   viewBox="0 0 44.979165 44.979165"
   version="1.1"
   id="svg1112"
   xmlns:xlink="http://www.w3.org/1999/xlink"
   xmlns="http://www.w3.org/2000/svg"
   xmlns:svg="http://www.w3.org/2000/svg">
  <defs
     id="defs1109">
    <clipPath
       id="SVGID_18_">
      <use
         xlink:href="#SVGID_17_"
         overflow="visible"
         id="use517"
         x="0"
         y="0"
         width="100%"
         height="100%" />
    </clipPath>
    <path
       id="SVGID_17_"
       d="m 376.449,116.609 -5.125,38.75 9.25,19.25 c 2.47,3.315 41.384,10.603 43.296,15.395 5.67,2.74 16.28,5.343 30.811,-1.834 0.889,-3.945 51.108,-19.005 52.269,-22.185 l 3.875,-46.625 -23.375,-14.875 -83.125,0.5 z" />
    <clipPath
       id="SVGID_20_">
      <use
         xlink:href="#SVGID_19_"
         overflow="visible"
         id="use544"
         x="0"
         y="0"
         width="100%"
         height="100%" />
    </clipPath>
    <path
       id="SVGID_19_"
       d="m 396.057,327.923 c 16.963,6.422 15.968,9.796 21.581,17.331 9.367,12.577 14.06,27.139 5.958,46.478 0,0 1.586,10.457 21.085,7.604 13.175,-1.928 18.08,-8.631 18.08,-8.631 -9.81,-18.311 -7.957,-30.204 -2.646,-44.761 2.751,-7.54 9.621,-15.563 28.804,-22.27 l -49.538,-20.582 z" />
    <clipPath
       id="SVGID_22_">
      <use
         xlink:href="#SVGID_21_"
         overflow="visible"
         id="use569"
         x="0"
         y="0"
         width="100%"
         height="100%" />
    </clipPath>
    <path
       id="SVGID_21_"
       d="m 405.106,495.489 c 0.442,6.755 4.651,11.32 10.481,15.831 10.613,8.211 14.405,24.315 8.789,40.358 0,0 -0.691,8.188 16.169,7.917 17.684,-0.285 17.97,-6.275 17.97,-6.275 -5.705,-16.543 -2.497,-42.642 16.328,-51.199 6.574,-2.988 -7.486,-2.139 1.927,-5.348 L 437.884,475.83 Z" />
  </defs>
  <g
     id="layer1">
    <g
       id="CORTINARIUS_3"
       transform="matrix(0.26458333,0,0,0.26458333,-52.254587,-24.661547)">
      <path
         fill="#e8da7d"
         d="m 266.158,166.568 c 3.518,14.951 -26.25,74.022 13.407,78.554 39.771,4.544 14.673,-59.195 15.552,-78.015"
         id="path395" />
      <g
         id="g399">
        <path
           fill="#c48c00"
           d="m 228.542,158.676 c 12.835,7.631 94.327,18.738 111.127,2.584 19.984,-19.217 -23.152,-38.942 -32.837,-43.17 -19.016,-8.301 -26.51,-11.036 -49.669,1.83 -19.575,10.876 -52.704,24.436 -28.621,38.756 z"
           id="path397" />
      </g>
      <path
         opacity="0.15"
         fill="#ffffff"
         d="m 292.034,122.073 c -2.168,0.862 1.614,11.281 5.782,19.312 3.347,6.447 6.973,13.011 13.639,14.041 16.118,2.49 19.83,0.508 23.431,-3.943 3.423,-4.231 -7.803,-11.858 -12.023,-14.584 -5.432,-3.507 -26.175,-16.678 -30.829,-14.826 z"
         id="path401" />
      <g
         id="g407">
        <g
           id="g405">
          <path
             fill="#3a4f28"
             d="m 283.095,111.064 c 7.321,0 14.027,2.788 23.737,7.026 9.685,4.228 52.821,23.953 32.837,43.17 -6.316,6.073 -21.776,8.291 -39.296,8.291 -1.729,0 -3.481,-0.022 -5.244,-0.063 0.919,20.508 21.156,75.865 -11.703,75.865 -1.212,0 -2.501,-0.076 -3.862,-0.231 -39.054,-4.463 -10.778,-61.819 -13.27,-77.841 -17.688,-2.214 -32.811,-5.667 -37.753,-8.605 -24.083,-14.32 9.046,-27.88 28.621,-38.755 11.335,-6.297 18.916,-8.857 25.933,-8.857 m 0,-11.338 v 0 c -9.183,0 -18.291,2.979 -31.438,10.283 -2.357,1.31 -4.945,2.673 -7.685,4.116 -17.114,9.017 -34.811,18.342 -35.203,33.557 -0.209,8.123 4.494,15.101 13.978,20.74 6.655,3.958 20.854,6.853 31.385,8.562 -0.578,3.004 -1.305,6.283 -1.893,8.936 -4.128,18.614 -9.265,41.781 1.801,57.3 5.355,7.512 13.51,11.942 24.237,13.167 1.768,0.202 3.5,0.305 5.149,0.305 11.857,0 18.714,-5.267 22.379,-9.685 12.035,-14.51 7.186,-40.294 3.289,-61.013 -0.337,-1.789 -0.668,-3.551 -0.977,-5.248 19.369,-0.756 32.302,-4.477 39.41,-11.312 8.764,-8.427 9.366,-17.108 8.329,-22.906 -1.698,-9.486 -8.9,-18.286 -22.02,-26.901 -6.292,-4.132 -14.062,-8.257 -22.469,-11.927 -9.391,-4.101 -18.263,-7.974 -28.272,-7.974 z"
             id="path403" />
        </g>
      </g>
    </g>
  </g>
</svg>
