<?xml version="1.0" encoding="UTF-8" standalone="no"?>
<!-- Created with Inkscape (http://www.inkscape.org/) -->

<svg
   width="170"
   height="170"
   viewBox="0 0 44.979165 44.979165"
   version="1.1"
   id="svg1112"
   xmlns:xlink="http://www.w3.org/1999/xlink"
   xmlns="http://www.w3.org/2000/svg"
   xmlns:svg="http://www.w3.org/2000/svg">
  <defs
     id="defs1109">
    <clipPath
       id="SVGID_18_">
      <use
         xlink:href="#SVGID_17_"
         overflow="visible"
         id="use517"
         x="0"
         y="0"
         width="100%"
         height="100%" />
    </clipPath>
    <path
       id="SVGID_17_"
       d="m 376.449,116.609 -5.125,38.75 9.25,19.25 c 2.47,3.315 41.384,10.603 43.296,15.395 5.67,2.74 16.28,5.343 30.811,-1.834 0.889,-3.945 51.108,-19.005 52.269,-22.185 l 3.875,-46.625 -23.375,-14.875 -83.125,0.5 z" />
    <clipPath
       id="SVGID_20_">
      <use
         xlink:href="#SVGID_19_"
         overflow="visible"
         id="use544"
         x="0"
         y="0"
         width="100%"
         height="100%" />
    </clipPath>
    <path
       id="SVGID_19_"
       d="m 396.057,327.923 c 16.963,6.422 15.968,9.796 21.581,17.331 9.367,12.577 14.06,27.139 5.958,46.478 0,0 1.586,10.457 21.085,7.604 13.175,-1.928 18.08,-8.631 18.08,-8.631 -9.81,-18.311 -7.957,-30.204 -2.646,-44.761 2.751,-7.54 9.621,-15.563 28.804,-22.27 l -49.538,-20.582 z" />
    <clipPath
       id="SVGID_22_">
      <use
         xlink:href="#SVGID_21_"
         overflow="visible"
         id="use569"
         x="0"
         y="0"
         width="100%"
         height="100%" />
    </clipPath>
    <path
       id="SVGID_21_"
       d="m 405.106,495.489 c 0.442,6.755 4.651,11.32 10.481,15.831 10.613,8.211 14.405,24.315 8.789,40.358 0,0 -0.691,8.188 16.169,7.917 17.684,-0.285 17.97,-6.275 17.97,-6.275 -5.705,-16.543 -2.497,-42.642 16.328,-51.199 6.574,-2.988 -7.486,-2.139 1.927,-5.348 L 437.884,475.83 Z" />
  </defs>
  <g
     id="layer1">
    <g
       id="CORTINARIUS_1"
       transform="matrix(0.26458333,0,0,0.26458333,-52.92123,-112.95009)">
      <path
         fill="#e8da7d"
         d="m 276.18,498.608 c -3.36,12.138 -26.782,58.366 7.281,61.213 38.246,3.197 16.788,-46.302 12.242,-56.914"
         id="path421" />
      <g
         id="g425">
        <path
           fill="#c48c00"
           d="m 317.805,517.118 c -4.91,7.509 -58.082,4.788 -66.573,-4.051 -10.448,-10.877 9.484,-31.909 16.072,-38.376 19.469,-19.113 28.228,-10.777 44.004,7.759 7.79,9.153 15.36,21.113 6.497,34.668 z"
           id="path423" />
      </g>
      <path
         opacity="0.15"
         fill="#ffffff"
         d="m 291.883,477.28 c -3.342,1.641 -2.972,30.444 9.817,33.095 9.939,2.06 11.802,-1.521 13.104,-6.53 1.214,-4.663 -8.086,-18.785 -12.776,-22.406 -4.529,-3.499 -6.163,-6.111 -10.145,-4.159 z"
         id="path427" />
      <g
         id="g433">
        <g
           id="g431">
          <path
             fill="#3a4f28"
             d="m 286.574,463.827 c 8.279,0 15.236,7.464 24.734,18.624 7.789,9.152 15.359,21.113 6.496,34.667 -1.496,2.286 -7.468,3.623 -15.285,4.128 5.055,17.08 7.147,38.724 -15.652,38.724 -1.078,0 -2.213,-0.048 -3.406,-0.148 -22.661,-1.894 -19.879,-22.986 -14.49,-40.469 -8.328,-1.441 -15.136,-3.575 -17.74,-6.286 -10.448,-10.877 9.484,-31.909 16.072,-38.376 7.749,-7.606 13.799,-10.864 19.271,-10.864 m 0,-11.339 c -11.508,0 -21.042,8.054 -27.213,14.111 -4.74,4.653 -11.396,11.857 -16.178,19.749 -11.221,18.515 -4.897,29.609 -0.128,34.573 1.867,1.944 5.04,4.482 12.077,6.772 -2.009,10.318 -2.256,21.903 3.898,31.012 3.415,5.054 10.261,11.31 23.487,12.415 1.488,0.125 2.952,0.188 4.35,0.188 13.5,0 20.729,-5.885 24.417,-10.822 5.42,-7.256 7.091,-17.109 5.03,-29.916 5.286,-1.519 8.767,-3.864 10.978,-7.243 5.8,-8.869 7.308,-18.712 4.364,-28.468 -2.51,-8.322 -7.887,-15.261 -11.713,-19.757 -9.462,-11.118 -19.246,-22.614 -33.369,-22.614 z"
             id="path429" />
        </g>
      </g>
    </g>
  </g>
</svg>
