<?xml version="1.0" encoding="UTF-8" standalone="no"?>
<!-- Created with Inkscape (http://www.inkscape.org/) -->

<svg
   width="170"
   height="170"
   viewBox="0 0 44.979165 44.979165"
   version="1.1"
   id="svg1112"
   xmlns:xlink="http://www.w3.org/1999/xlink"
   xmlns="http://www.w3.org/2000/svg"
   xmlns:svg="http://www.w3.org/2000/svg">
  <defs
     id="defs1109">
    <clipPath
       id="SVGID_18_">
      <use
         xlink:href="#SVGID_17_"
         overflow="visible"
         id="use517"
         x="0"
         y="0"
         width="100%"
         height="100%" />
    </clipPath>
    <path
       id="SVGID_17_"
       d="m 376.449,116.609 -5.125,38.75 9.25,19.25 c 2.47,3.315 41.384,10.603 43.296,15.395 5.67,2.74 16.28,5.343 30.811,-1.834 0.889,-3.945 51.108,-19.005 52.269,-22.185 l 3.875,-46.625 -23.375,-14.875 -83.125,0.5 z" />
    <clipPath
       id="SVGID_20_">
      <use
         xlink:href="#SVGID_19_"
         overflow="visible"
         id="use544"
         x="0"
         y="0"
         width="100%"
         height="100%" />
    </clipPath>
    <path
       id="SVGID_19_"
       d="m 396.057,327.923 c 16.963,6.422 15.968,9.796 21.581,17.331 9.367,12.577 14.06,27.139 5.958,46.478 0,0 1.586,10.457 21.085,7.604 13.175,-1.928 18.08,-8.631 18.08,-8.631 -9.81,-18.311 -7.957,-30.204 -2.646,-44.761 2.751,-7.54 9.621,-15.563 28.804,-22.27 l -49.538,-20.582 z" />
  </defs>
  <g
     id="layer1">
    <g
       id="INDIGO_2"
       transform="matrix(0.26458333,0,0,0.26458333,-94.537512,-69.145413)">
      <g
         id="g539">
        <path
           fill="#326ab3"
           d="m 396.057,327.923 c 16.963,6.422 15.968,9.796 21.581,17.331 9.367,12.577 14.06,27.139 5.958,46.478 0,0 1.586,10.457 21.085,7.604 13.175,-1.928 18.08,-8.631 18.08,-8.631 -9.81,-18.311 -7.957,-30.204 -2.646,-44.761 2.751,-7.54 9.621,-15.563 28.804,-22.27 l -49.538,-20.582 z"
           id="path537" />
      </g>
      <g
         id="g549">
        <defs
           id="defs542">
          <path
             id="path1647"
             d="m 396.057,327.923 c 16.963,6.422 15.968,9.796 21.581,17.331 9.367,12.577 14.06,27.139 5.958,46.478 0,0 1.586,10.457 21.085,7.604 13.175,-1.928 18.08,-8.631 18.08,-8.631 -9.81,-18.311 -7.957,-30.204 -2.646,-44.761 2.751,-7.54 9.621,-15.563 28.804,-22.27 l -49.538,-20.582 z" />
        </defs>
        <clipPath
           id="clipPath1492">
          <use
             xlink:href="#SVGID_19_"
             overflow="visible"
             id="use1490"
             x="0"
             y="0"
             width="100%"
             height="100%" />
        </clipPath>
        <path
           clip-path="url(#SVGID_20_)"
           fill="#1b5db3"
           d="m 417.555,354.966 c 0,0 19.864,16.186 52.972,-5.641 l 9.563,-31.39 -82.154,6.131 z"
           id="path547" />
      </g>
      <g
         id="g553">
        <path
           fill="#75a0d6"
           d="m 393.725,332.629 c 0,0 -13.616,-19.549 18.122,-34.108 11.012,-5.051 15.342,0.888 26.346,0.17 14.688,-0.958 12.213,-9.272 32.571,-4.242 25.996,6.422 22.911,29.239 22.911,29.239 -21.287,17.882 -77.684,27.52 -99.95,8.941 z"
           id="path551" />
      </g>
      <g
         id="g559">
        <g
           id="g557">
          <path
             fill="#39284f"
             d="m 459.881,292.845 c 2.749,0 6.217,0.452 10.883,1.605 25.996,6.422 22.911,29.239 22.911,29.239 -6.712,5.638 -16.916,10.453 -28.438,13.826 -2.536,2.815 -4.108,5.654 -5.121,8.429 -5.312,14.557 -7.164,26.45 2.646,44.761 0,0 -4.905,6.703 -18.08,8.631 -2.341,0.343 -4.423,0.493 -6.276,0.493 -13.58,0 -14.809,-8.097 -14.809,-8.097 8.102,-19.339 3.409,-33.901 -5.958,-46.478 -1.039,-1.394 -1.851,-2.645 -2.593,-3.8 -8.459,-1.467 -15.903,-4.305 -21.32,-8.825 0,0 -13.616,-19.549 18.122,-34.108 3.348,-1.536 6.077,-2.056 8.565,-2.055 5.217,0 9.369,2.287 15.917,2.287 0.6,0 1.221,-0.019 1.863,-0.061 11.322,-0.738 12.444,-5.847 21.688,-5.847 m 0,-11.339 c -7.139,0 -11.598,2.142 -14.854,3.707 -2.423,1.164 -4.023,1.933 -7.573,2.165 -0.378,0.024 -0.756,0.037 -1.125,0.037 -2.18,0 -4.021,-0.421 -6.354,-0.955 -2.729,-0.625 -5.821,-1.332 -9.563,-1.332 -4.415,0 -8.763,1.01 -13.293,3.088 -14.673,6.731 -23.624,15.686 -26.604,26.616 -3.556,13.042 3.132,23.167 3.905,24.278 0.578,0.83 1.265,1.578 2.041,2.226 5.68,4.739 12.993,8.192 21.789,10.293 0.098,0.133 0.197,0.267 0.298,0.403 8.695,11.675 10.069,22.239 4.59,35.319 -0.805,1.919 -1.064,4.024 -0.752,6.082 0.999,6.587 7.604,17.735 26.019,17.735 2.476,0 5.14,-0.207 7.918,-0.613 17.016,-2.49 24.301,-11.395 25.589,-13.154 2.576,-3.52 2.904,-8.206 0.845,-12.051 -7.609,-14.202 -6.763,-22.436 -1.989,-35.52 0.328,-0.897 0.731,-1.732 1.23,-2.535 9.02,-2.919 20.343,-7.677 28.971,-14.924 2.159,-1.814 3.565,-4.368 3.943,-7.163 0.193,-1.43 0.989,-9.006 -2.348,-17.766 -3.225,-8.468 -10.888,-19.505 -29.08,-24 -5.273,-1.302 -9.722,-1.936 -13.603,-1.936 z"
             id="path555" />
        </g>
      </g>
    </g>
  </g>
</svg>
