<?xml version="1.0" encoding="UTF-8" standalone="no"?>
<!-- Created with Inkscape (http://www.inkscape.org/) -->

<svg
   width="170"
   height="170"
   viewBox="0 0 44.979165 44.979165"
   version="1.1"
   id="svg1112"
   xmlns:xlink="http://www.w3.org/1999/xlink"
   xmlns="http://www.w3.org/2000/svg"
   xmlns:svg="http://www.w3.org/2000/svg">
  <defs
     id="defs1109">
    <clipPath
       id="SVGID_18_">
      <use
         xlink:href="#SVGID_17_"
         overflow="visible"
         id="use517"
         x="0"
         y="0"
         width="100%"
         height="100%" />
    </clipPath>
    <path
       id="SVGID_17_"
       d="m 376.449,116.609 -5.125,38.75 9.25,19.25 c 2.47,3.315 41.384,10.603 43.296,15.395 5.67,2.74 16.28,5.343 30.811,-1.834 0.889,-3.945 51.108,-19.005 52.269,-22.185 l 3.875,-46.625 -23.375,-14.875 -83.125,0.5 z" />
    <clipPath
       id="SVGID_20_">
      <use
         xlink:href="#SVGID_19_"
         overflow="visible"
         id="use544"
         x="0"
         y="0"
         width="100%"
         height="100%" />
    </clipPath>
    <path
       id="SVGID_19_"
       d="m 396.057,327.923 c 16.963,6.422 15.968,9.796 21.581,17.331 9.367,12.577 14.06,27.139 5.958,46.478 0,0 1.586,10.457 21.085,7.604 13.175,-1.928 18.08,-8.631 18.08,-8.631 -9.81,-18.311 -7.957,-30.204 -2.646,-44.761 2.751,-7.54 9.621,-15.563 28.804,-22.27 l -49.538,-20.582 z" />
    <clipPath
       id="SVGID_22_">
      <use
         xlink:href="#SVGID_21_"
         overflow="visible"
         id="use569"
         x="0"
         y="0"
         width="100%"
         height="100%" />
    </clipPath>
    <path
       id="SVGID_21_"
       d="m 405.106,495.489 c 0.442,6.755 4.651,11.32 10.481,15.831 10.613,8.211 14.405,24.315 8.789,40.358 0,0 -0.691,8.188 16.169,7.917 17.684,-0.285 17.97,-6.275 17.97,-6.275 -5.705,-16.543 -2.497,-42.642 16.328,-51.199 6.574,-2.988 -7.486,-2.139 1.927,-5.348 L 437.884,475.83 Z" />
  </defs>
  <g
     id="layer1">
    <g
       id="INDIGO_1"
       transform="matrix(0.26458333,0,0,0.26458333,-94.158428,-112.93025)">
      <g
         id="g564">
        <path
           fill="#326ab3"
           d="m 405.106,495.489 c 0.442,6.755 4.651,11.32 10.481,15.831 10.613,8.211 14.405,24.315 8.789,40.358 0,0 -0.691,8.188 16.169,7.917 17.684,-0.285 17.97,-6.275 17.97,-6.275 -5.705,-16.543 -2.497,-42.642 16.328,-51.199 6.574,-2.988 -7.486,-2.139 1.927,-5.348 L 437.884,475.83 Z"
           id="path562" />
      </g>
      <g
         id="g574">
        <defs
           id="defs567">
          <path
             id="path1908"
             d="m 405.106,495.489 c 0.442,6.755 4.651,11.32 10.481,15.831 10.613,8.211 14.405,24.315 8.789,40.358 0,0 -0.691,8.188 16.169,7.917 17.684,-0.285 17.97,-6.275 17.97,-6.275 -5.705,-16.543 -2.497,-42.642 16.328,-51.199 6.574,-2.988 -7.486,-2.139 1.927,-5.348 L 437.884,475.83 Z" />
        </defs>
        <clipPath
           id="clipPath1753">
          <use
             xlink:href="#SVGID_21_"
             overflow="visible"
             id="use1751"
             x="0"
             y="0"
             width="100%"
             height="100%" />
        </clipPath>
        <path
           clip-path="url(#SVGID_22_)"
           fill="#1b5db3"
           d="m 419.209,520.217 c 0,0 18.75,15.982 47.079,-2.694 l 11.766,-21.178 -74.444,3.208 z"
           id="path572" />
      </g>
      <g
         id="g578">
        <path
           fill="#75a0d6"
           d="m 402.609,503.404 c 0,0 -8.396,-20.656 18.113,-34.441 8.913,-4.635 20.372,-6.942 37.793,-2.638 22.244,5.496 21.891,34.084 21.891,34.084 -18.215,15.301 -58.742,18.893 -77.797,2.995 z"
           id="path576" />
      </g>
      <g
         id="g584">
        <g
           id="g582">
          <path
             fill="#39284f"
             d="m 441.461,464.045 c 4.984,0 10.612,0.688 17.055,2.279 22.244,5.496 21.891,34.084 21.891,34.084 -3.956,3.323 -8.966,6.092 -14.578,8.231 -10.7,11.528 -11.944,31.25 -7.313,44.679 0,0 -0.286,5.99 -17.97,6.275 -0.275,0.004 -0.546,0.007 -0.813,0.007 -16.024,0 -15.356,-7.923 -15.356,-7.923 5.616,-16.043 1.824,-32.147 -8.789,-40.358 -0.699,-0.541 -1.374,-1.083 -2.021,-1.629 -4.101,-1.595 -7.823,-3.671 -10.957,-6.286 0,0 -8.396,-20.656 18.113,-34.441 5.617,-2.921 12.244,-4.918 20.738,-4.918 m 0,-11.338 c -9.457,0 -17.952,2.027 -25.97,6.196 -17.796,9.254 -23.38,21.683 -24.933,30.48 -1.695,9.615 0.991,16.923 1.547,18.29 0.7,1.722 1.813,3.245 3.24,4.436 3.525,2.942 7.676,5.438 12.356,7.433 0.306,0.244 0.621,0.492 0.948,0.745 6.811,5.27 8.878,16.637 5.025,27.644 -0.316,0.902 -0.516,1.84 -0.597,2.792 -0.138,1.625 -0.211,7.333 4.599,12.566 4.665,5.076 12.086,7.65 22.056,7.65 0.327,0 0.658,-0.003 0.996,-0.008 9.693,-0.156 16.811,-1.848 21.756,-5.17 4.391,-2.95 7.141,-7.399 7.356,-11.901 0.068,-1.438 -0.138,-2.877 -0.607,-4.238 -3.225,-9.349 -2.671,-23.177 3.473,-31.534 5.787,-2.473 10.82,-5.493 14.992,-8.998 2.527,-2.123 4.004,-5.241 4.045,-8.542 0.012,-0.933 0.02,-9.385 -3.219,-18.807 -4.767,-13.871 -14.458,-23.255 -27.29,-26.426 -7.009,-1.73 -13.663,-2.608 -19.773,-2.608 z"
             id="path580" />
        </g>
      </g>
    </g>
  </g>
</svg>
