<?xml version="1.0" encoding="UTF-8" standalone="no"?>
<!-- Created with Inkscape (http://www.inkscape.org/) -->

<svg
   width="170"
   height="170"
   viewBox="0 0 44.979165 44.979165"
   version="1.1"
   id="svg1112"
   inkscape:version="1.1 (ce6663b3b7, 2021-05-25)"
   sodipodi:docname="indigo-3.svg"
   xmlns:inkscape="http://www.inkscape.org/namespaces/inkscape"
   xmlns:sodipodi="http://sodipodi.sourceforge.net/DTD/sodipodi-0.dtd"
   xmlns:xlink="http://www.w3.org/1999/xlink"
   xmlns="http://www.w3.org/2000/svg"
   xmlns:svg="http://www.w3.org/2000/svg">
  <sodipodi:namedview
     id="namedview1114"
     pagecolor="#ffffff"
     bordercolor="#666666"
     borderopacity="1.0"
     inkscape:pageshadow="2"
     inkscape:pageopacity="0.0"
     inkscape:pagecheckerboard="0"
     inkscape:document-units="mm"
     showgrid="false"
     width="170mm"
     units="px"
     inkscape:zoom="0.67081229"
     inkscape:cx="213.17439"
     inkscape:cy="81.244785"
     inkscape:window-width="1852"
     inkscape:window-height="1016"
     inkscape:window-x="68"
     inkscape:window-y="27"
     inkscape:window-maximized="1"
     inkscape:current-layer="layer1" />
  <defs
     id="defs1109">
    <clipPath
       id="SVGID_18_">
      <use
         xlink:href="#SVGID_17_"
         overflow="visible"
         id="use517"
         x="0"
         y="0"
         width="100%"
         height="100%" />
    </clipPath>
    <path
       id="SVGID_17_"
       d="m 376.449,116.609 -5.125,38.75 9.25,19.25 c 2.47,3.315 41.384,10.603 43.296,15.395 5.67,2.74 16.28,5.343 30.811,-1.834 0.889,-3.945 51.108,-19.005 52.269,-22.185 l 3.875,-46.625 -23.375,-14.875 -83.125,0.5 z" />
  </defs>
  <g
     inkscape:label="Layer 1"
     inkscape:groupmode="layer"
     id="layer1">
    <g
       id="INDIGO_3"
       transform="matrix(0.26458333,0,0,0.26458333,-94.096949,-24.224059)">
      <g
         id="g512">
        <path
           fill="#326ab3"
           d="m 383.158,158.984 c 17.292,6.546 28.278,10.986 34,18.667 9.55,12.821 17.064,39.468 6.074,58.381 0,0 1.616,10.66 21.494,7.751 13.431,-1.965 17.098,-8.465 17.098,-8.465 -12.834,-25 -6.777,-42.125 -1.363,-56.964 2.805,-7.687 16.476,-20.865 36.03,-27.702 L 439.324,132.4 Z"
           id="path510" />
      </g>
      <g
         id="g524">
        <defs
           id="defs515">
          <path
             id="path1224"
             d="m 376.449,116.609 -5.125,38.75 9.25,19.25 c 2.47,3.315 41.384,10.603 43.296,15.395 5.67,2.74 16.28,5.343 30.811,-1.834 0.889,-3.945 51.108,-19.005 52.269,-22.185 l 3.875,-46.625 -23.375,-14.875 -83.125,0.5 z" />
        </defs>
        <clipPath
           id="clipPath1145">
          <use
             xlink:href="#SVGID_17_"
             overflow="visible"
             id="use1143"
             x="0"
             y="0"
             width="100%"
             height="100%" />
        </clipPath>
        <g
           clip-path="url(#SVGID_18_)"
           id="g522">
          <path
             fill="#1b5db3"
             d="m 383.158,158.984 c 17.292,6.546 28.278,10.986 34,18.667 9.55,12.821 17.064,39.468 6.074,58.381 0,0 1.616,10.66 21.494,7.751 13.431,-1.965 17.098,-8.465 17.098,-8.465 -12.834,-25 -6.777,-42.125 -1.363,-56.964 2.805,-7.687 16.476,-20.865 36.03,-27.702 L 439.324,132.4 Z"
             id="path520" />
        </g>
      </g>
      <g
         id="g528">
        <path
           fill="#75a0d6"
           d="m 378.145,158.038 c 0,0 -8.784,-28.856 24.347,-44.054 11.494,-5.272 20.666,4 32,6 19.392,3.422 25.666,-16.667 45.333,-9.667 26.334,9.373 24.334,37.667 24.334,37.667 -22.222,18.666 -102.771,29.447 -126.014,10.054 z"
           id="path526" />
      </g>
      <g
         id="g534">
        <g
           id="g532">
          <path
             fill="#39284f"
             d="m 471.773,108.826 c 2.44,0 5.096,0.44 8.051,1.492 26.334,9.373 24.334,37.667 24.334,37.667 -5.78,4.855 -15.512,9.175 -27.149,12.57 -8.896,6.165 -14.81,13.036 -16.548,17.799 -5.414,14.84 -11.471,31.964 1.363,56.964 0,0 -3.667,6.5 -17.098,8.465 -2.387,0.349 -4.51,0.503 -6.398,0.503 -13.844,0 -15.096,-8.254 -15.096,-8.254 10.99,-18.913 3.476,-45.56 -6.074,-58.381 -3.146,-4.224 -7.896,-7.467 -14.399,-10.62 -10.393,-1.504 -19.111,-4.402 -24.614,-8.994 0,0 -8.784,-28.856 24.347,-44.054 2.487,-1.141 4.865,-1.601 7.18,-1.601 8.384,0 15.938,6.033 24.82,7.601 1.545,0.272 3.003,0.396 4.395,0.396 13.452,10e-4 20.38,-11.553 32.886,-11.553 m 0,-11.339 c -9.192,0 -16.022,3.966 -21.51,7.152 -4.701,2.729 -7.766,4.402 -11.378,4.402 -0.78,0 -1.573,-0.073 -2.424,-0.223 -2.635,-0.465 -5.57,-1.716 -8.679,-3.04 -5.206,-2.219 -11.107,-4.733 -18.112,-4.733 -4.092,0 -8.098,0.886 -11.907,2.633 -21.39,9.812 -28.642,24.811 -30.959,35.665 -2.485,11.644 0.181,20.972 0.493,21.997 0.643,2.111 1.888,3.989 3.582,5.403 6.537,5.455 16.088,9.228 28.408,11.227 4.375,2.246 7.184,4.315 8.777,6.455 7.546,10.13 13.608,31.722 5.363,45.91 -1.298,2.233 -1.794,4.843 -1.407,7.396 1.008,6.646 7.683,17.893 26.307,17.893 2.514,0 5.219,-0.209 8.04,-0.622 18.02,-2.637 24.263,-12.219 25.331,-14.113 1.873,-3.32 1.953,-7.358 0.212,-10.75 -10.683,-20.809 -5.881,-33.968 -0.799,-47.9 0.569,-1.559 3.968,-6.243 10.939,-11.357 12.983,-3.952 22.869,-8.731 29.399,-14.216 2.351,-1.975 3.801,-4.819 4.018,-7.883 0.067,-0.957 0.562,-9.641 -2.862,-19.754 -4.806,-14.192 -14.827,-24.356 -28.98,-29.394 -4.005,-1.425 -7.992,-2.148 -11.852,-2.148 z"
             id="path530" />
        </g>
      </g>
    </g>
  </g>
</svg>
