<?xml version="1.0" encoding="UTF-8" standalone="no"?>
<!-- Created with Inkscape (http://www.inkscape.org/) -->

<svg
   width="170"
   height="170"
   viewBox="0 0 44.979165 44.979165"
   version="1.1"
   id="svg1112"
   xmlns:xlink="http://www.w3.org/1999/xlink"
   xmlns="http://www.w3.org/2000/svg"
   xmlns:svg="http://www.w3.org/2000/svg">
  <defs
     id="defs1109">
    <clipPath
       id="SVGID_18_">
      <use
         xlink:href="#SVGID_17_"
         overflow="visible"
         id="use517"
         x="0"
         y="0"
         width="100%"
         height="100%" />
    </clipPath>
    <path
       id="SVGID_17_"
       d="m 376.449,116.609 -5.125,38.75 9.25,19.25 c 2.47,3.315 41.384,10.603 43.296,15.395 5.67,2.74 16.28,5.343 30.811,-1.834 0.889,-3.945 51.108,-19.005 52.269,-22.185 l 3.875,-46.625 -23.375,-14.875 -83.125,0.5 z" />
    <clipPath
       id="SVGID_20_">
      <use
         xlink:href="#SVGID_19_"
         overflow="visible"
         id="use544"
         x="0"
         y="0"
         width="100%"
         height="100%" />
    </clipPath>
    <path
       id="SVGID_19_"
       d="m 396.057,327.923 c 16.963,6.422 15.968,9.796 21.581,17.331 9.367,12.577 14.06,27.139 5.958,46.478 0,0 1.586,10.457 21.085,7.604 13.175,-1.928 18.08,-8.631 18.08,-8.631 -9.81,-18.311 -7.957,-30.204 -2.646,-44.761 2.751,-7.54 9.621,-15.563 28.804,-22.27 l -49.538,-20.582 z" />
    <clipPath
       id="SVGID_22_">
      <use
         xlink:href="#SVGID_21_"
         overflow="visible"
         id="use569"
         x="0"
         y="0"
         width="100%"
         height="100%" />
    </clipPath>
    <path
       id="SVGID_21_"
       d="m 405.106,495.489 c 0.442,6.755 4.651,11.32 10.481,15.831 10.613,8.211 14.405,24.315 8.789,40.358 0,0 -0.691,8.188 16.169,7.917 17.684,-0.285 17.97,-6.275 17.97,-6.275 -5.705,-16.543 -2.497,-42.642 16.328,-51.199 6.574,-2.988 -7.486,-2.139 1.927,-5.348 L 437.884,475.83 Z" />
    <clipPath
       id="SVGID_12_">
      <use
         xlink:href="#SVGID_11_"
         overflow="visible"
         id="use445"
         x="0"
         y="0"
         width="100%"
         height="100%" />
    </clipPath>
    <path
       id="SVGID_11_"
       d="m 56.157,160.256 c 0,0 49.433,2.535 52.524,80.946 0,0 7.015,9.883 33.474,0 0,0 -14.145,-79.974 40.754,-86.016 0,0 5.921,-13.603 -4.833,-21.39 -6.892,-4.991 -9.291,-3.578 -15.923,-7.605 -6.654,-4.04 -3.327,-12.358 -13.784,-14.735 -10.932,-2.484 -13.546,6.892 -23.291,7.605 -9.029,0.661 -13.223,-8.271 -27.569,-6.179 -11.407,1.664 -6.892,9.744 -16.161,15.923 -7.283,4.855 -13.218,3.398 -18.05,7.778 -6.19,5.61 -6.626,18.267 -7.141,23.673 z" />
    <clipPath
       id="SVGID_14_">
      <use
         xlink:href="#SVGID_13_"
         overflow="visible"
         id="use472"
         x="0"
         y="0"
         width="100%"
         height="100%" />
    </clipPath>
    <path
       id="SVGID_13_"
       d="m 68.503,329.595 c 0,0 44.268,14.421 39.573,63.719 0,0 7.378,10.396 35.211,0 0,0 -5.03,-65.061 37.226,-80.822 0,0 -7.043,-3.019 -17.775,-5.701 -11.328,-2.832 -11.737,-18.445 -25.152,-14.756 -15.573,4.283 -17.101,6.708 -27.833,6.708 -6.676,0 -19.786,-7.378 -26.158,5.365 -6.372,12.743 -3.355,17.104 -15.092,25.487 z" />
    <clipPath
       id="SVGID_16_">
      <use
         xlink:href="#SVGID_15_"
         overflow="visible"
         id="use496"
         x="0"
         y="0"
         width="100%"
         height="100%" />
    </clipPath>
    <path
       id="SVGID_15_"
       d="m 87.824,499.484 c 0,0 31.134,14.591 27.333,54.5 0,0 5.333,10 23.333,0.667 0,0 1.667,-53 31.354,-65.357 0,0 -0.456,-8.984 -9.021,-9.643 -10.833,-0.833 -13.286,-8.029 -23,-9 -10.833,-1.083 -23.204,3.755 -29.333,10 -8.832,9 -20.332,5.667 -20.666,18.833 z" />
    <clipPath
       id="SVGID_6_">
      <use
         xlink:href="#SVGID_5_"
         overflow="visible"
         id="use301"
         x="0"
         y="0"
         width="100%"
         height="100%" />
    </clipPath>
    <path
       id="SVGID_5_"
       d="m 395.854,749.385 c 0,0 46.565,19.874 97.63,-9.211 52.823,-30.086 -34.626,-77.529 -61.66,-72.415 -27.035,5.115 -84.926,68.858 -35.97,81.626 z" />
    <clipPath
       id="SVGID_8_">
      <use
         xlink:href="#SVGID_7_"
         overflow="visible"
         id="use336"
         x="0"
         y="0"
         width="100%"
         height="100%" />
    </clipPath>
    <path
       id="SVGID_7_"
       d="m 248.749,760.249 c 0,0 33.322,16.568 73.075,-11.454 39.752,-28.021 -25.139,-71.867 -46.769,-67.775 -21.629,4.093 -65.475,69.013 -26.306,79.229 z" />
    <clipPath
       id="SVGID_10_">
      <use
         xlink:href="#SVGID_9_"
         overflow="visible"
         id="use369"
         x="0"
         y="0"
         width="100%"
         height="100%" />
    </clipPath>
    <path
       id="SVGID_9_"
       d="m 87.11,751.097 c 0,0 34.248,22.562 71.22,-9.04 17.357,-14.836 -19.443,-57 -41.227,-53.825 -21.783,3.175 -46.089,44.962 -29.993,62.865 z" />
  </defs>
  <g
     id="layer1">
    <g
       id="ROCK_2"
       display="inline"
       transform="matrix(0.26458333,0,0,0.26458333,-94.387683,-70.007426)">
      <polygon
         display="inline"
         fill="#bfbfbf"
         points="476.507,375.618 441.428,397.695 403.232,388.984 388.658,365.699 413.787,337.053 426.688,301.496 457.568,328.404 "
         id="polygon596" />
      <polygon
         display="inline"
         fill="#a6a6a6"
         points="441.428,397.695 438.629,361.748 452.145,337.204 426.688,301.496 465.832,323.335 472.772,350.01 494.823,376.15 "
         id="polygon598" />
      <g
         display="inline"
         id="g602">
        <path
           fill="#444444"
           d="m 426.688,301.496 39.145,21.84 6.94,26.675 22.051,26.14 -53.396,21.544 -38.195,-8.71 -14.574,-23.285 25.129,-28.646 12.9,-35.558 m 0,-11.339 c -1.338,0 -2.68,0.236 -3.962,0.714 -3.114,1.162 -5.563,3.632 -6.697,6.757 l -12.172,33.552 -23.722,27.042 c -3.303,3.764 -3.744,9.249 -1.088,13.493 L 393.621,395 c 1.6,2.556 4.151,4.369 7.09,5.039 l 38.195,8.71 c 0.832,0.19 1.678,0.284 2.521,0.284 1.446,0 2.887,-0.276 4.242,-0.823 l 53.396,-21.544 c 3.372,-1.361 5.887,-4.255 6.763,-7.784 0.876,-3.529 0.006,-7.263 -2.338,-10.042 l -20.393,-24.174 -6.292,-24.185 c -0.779,-2.994 -2.748,-5.54 -5.449,-7.047 l -39.145,-21.84 c -1.707,-0.953 -3.611,-1.437 -5.523,-1.437 z"
           id="path600" />
      </g>
    </g>
  </g>
</svg>
