<?xml version="1.0" encoding="UTF-8" standalone="no"?>
<!-- Created with Inkscape (http://www.inkscape.org/) -->

<svg
   width="40"
   height="40"
   viewBox="0 0 10.583333 10.583334"
   version="1.1"
   id="svg5103"
   sodipodi:docname="button-sell-icon.svg"
   inkscape:version="1.1 (ce6663b3b7, 2021-05-25)"
   xmlns:inkscape="http://www.inkscape.org/namespaces/inkscape"
   xmlns:sodipodi="http://sodipodi.sourceforge.net/DTD/sodipodi-0.dtd"
   xmlns="http://www.w3.org/2000/svg"
   xmlns:svg="http://www.w3.org/2000/svg">
  <sodipodi:namedview
     id="namedview5675"
     pagecolor="#ffffff"
     bordercolor="#666666"
     borderopacity="1.0"
     inkscape:pageshadow="2"
     inkscape:pageopacity="0.0"
     inkscape:pagecheckerboard="0"
     showgrid="false"
     inkscape:zoom="21.1"
     inkscape:cx="17.985782"
     inkscape:cy="20.023697"
     inkscape:window-width="1852"
     inkscape:window-height="1016"
     inkscape:window-x="68"
     inkscape:window-y="27"
     inkscape:window-maximized="1"
     inkscape:current-layer="svg5103" />
  <defs
     id="defs5100" />
  <g
     id="layer1"
     transform="translate(0.52916671)">
    <g
       id="g5338"
       transform="matrix(0.95000003,0,0,0.95000003,-5.5638844,15.285317)">
      <g
         id="gold_icon_1_"
         transform="matrix(0.08733443,0,0,0.08733443,-4.9861825,-94.039238)">
        <g
           id="g219">
          <g
             id="circle207">
            <path
               style="color:#000000;fill:#ffcc33;stroke-width:11.3386;stroke-miterlimit:10;-inkscape-stroke:none"
               d="m 231.19799,937.70001 a 36.301998,36.301998 0 0 1 -36.30199,36.302 36.301998,36.301998 0 0 1 -36.302,-36.302 36.301998,36.301998 0 0 1 36.302,-36.302 36.301998,36.301998 0 0 1 36.30199,36.302 z"
               id="path5278" />
            <path
               style="color:#000000;fill:#e6b017;stroke-miterlimit:10;-inkscape-stroke:none"
               d="m 194.89648,895.72852 c -23.11293,0 -41.97265,18.85776 -41.97265,41.9707 0,23.11293 18.85972,41.97265 41.97265,41.97265 23.11294,0 41.97071,-18.85972 41.97071,-41.97265 0,-23.11294 -18.85777,-41.9707 -41.97071,-41.9707 z m 0,11.33789 c 16.98511,0 30.63282,13.6477 30.63282,30.63281 0,16.9851 -13.64771,30.63281 -30.63282,30.63281 -16.9851,0 -30.63281,-13.64771 -30.63281,-30.63281 0,-16.98511 13.64771,-30.63281 30.63281,-30.63281 z"
               id="path5280" />
          </g>
          <g
             id="g217">
            <path
               style="color:#000000;fill:#e6b017;stroke-miterlimit:10;-inkscape-stroke:none"
               d="m 194.89648,900.89844 c -20.31924,0 -36.80273,16.48154 -36.80273,36.80078 0,20.31924 16.48349,36.80273 36.80273,36.80273 20.31924,0 36.80079,-16.48349 36.80079,-36.80273 0,-20.31924 -16.48155,-36.80078 -36.80079,-36.80078 z m 0,1 c 19.7788,0 35.80079,16.02198 35.80079,35.80078 0,19.7788 -16.02199,35.80273 -35.80079,35.80273 -19.7788,0 -35.80273,-16.02393 -35.80273,-35.80273 0,-19.7788 16.02393,-35.80078 35.80273,-35.80078 z"
               id="circle209" />
            <path
               style="color:#000000;fill:#e6b017;stroke-linecap:round;stroke-miterlimit:10;-inkscape-stroke:none"
               d="m 194.77734,917.29102 a 5.6693001,5.6693001 0 0 0 -5.66992,5.66992 v 30.02343 a 5.6693001,5.6693001 0 0 0 5.66992,5.66993 5.6693001,5.6693001 0 0 0 5.66993,-5.66993 v -30.02343 a 5.6693001,5.6693001 0 0 0 -5.66993,-5.66992 z"
               id="line211" />
            <path
               style="color:#000000;fill:#e6b017;stroke-linecap:round;stroke-miterlimit:10;-inkscape-stroke:none"
               d="m 194.77734,917.29102 a 5.6693001,5.6693001 0 0 0 -5.66992,5.66992 5.6693001,5.6693001 0 0 0 5.66992,5.66992 h 7.34961 a 5.6693001,5.6693001 0 0 0 5.66797,-5.66992 5.6693001,5.6693001 0 0 0 -5.66797,-5.66992 z"
               id="line213" />
            <path
               style="color:#000000;fill:#e6b017;stroke-linecap:round;stroke-miterlimit:10;-inkscape-stroke:none"
               d="m 181.95312,932.30469 a 5.6693001,5.6693001 0 0 0 -5.66796,5.66797 5.6693001,5.6693001 0 0 0 5.66796,5.66992 h 12.82422 a 5.6693001,5.6693001 0 0 0 5.66993,-5.66992 5.6693001,5.6693001 0 0 0 -5.66993,-5.66797 z"
               id="line215" />
          </g>
        </g>
      </g>
      <g
         id="gold_icon_2_"
         transform="matrix(0.08733443,0,0,0.08733443,-4.9861825,-94.039238)">
        <g
           id="g234">
          <g
             id="circle222">
            <path
               style="color:#000000;fill:#ffcc33;stroke-width:11.3386;stroke-miterlimit:10;-inkscape-stroke:none"
               d="m 204.518,956.37598 a 36.301998,36.301998 0 0 1 -36.302,36.30199 36.301998,36.301998 0 0 1 -36.30199,-36.30199 36.301998,36.301998 0 0 1 36.30199,-36.302 36.301998,36.301998 0 0 1 36.302,36.302 z"
               id="path5246" />
            <path
               style="color:#000000;fill:#e6b017;stroke-miterlimit:10;-inkscape-stroke:none"
               d="m 168.2168,914.4043 c -23.11294,0 -41.97266,18.85777 -41.97266,41.9707 0,23.11293 18.85972,41.97266 41.97266,41.97266 23.11293,0 41.9707,-18.85973 41.9707,-41.97266 0,-23.11293 -18.85777,-41.9707 -41.9707,-41.9707 z m 0,11.33984 c 16.9851,0 30.63281,13.64575 30.63281,30.63086 0,16.98511 -13.64771,30.63281 -30.63281,30.63281 -16.98511,0 -30.63282,-13.6477 -30.63282,-30.63281 0,-16.98511 13.64771,-30.63086 30.63282,-30.63086 z"
               id="path5248" />
          </g>
          <g
             id="g232">
            <path
               style="color:#000000;fill:#e6b017;stroke-miterlimit:10;-inkscape-stroke:none"
               d="m 168.2168,919.57422 c -20.31924,0 -36.80274,16.48154 -36.80274,36.80078 0,20.31924 16.4835,36.80273 36.80274,36.80273 20.31924,0 36.80078,-16.48349 36.80078,-36.80273 0,-20.31924 -16.48154,-36.80078 -36.80078,-36.80078 z m 0,1 c 19.7788,0 35.80078,16.02198 35.80078,35.80078 0,19.7788 -16.02198,35.80273 -35.80078,35.80273 -19.7788,0 -35.80274,-16.02393 -35.80274,-35.80273 0,-19.7788 16.02394,-35.80078 35.80274,-35.80078 z"
               id="circle224" />
            <path
               style="color:#000000;fill:#e6b017;stroke-linecap:round;stroke-miterlimit:10;-inkscape-stroke:none"
               d="m 168.0957,935.9668 a 5.6693001,5.6693001 0 0 0 -5.66992,5.66992 v 30.02344 a 5.6693001,5.6693001 0 0 0 5.66992,5.66992 5.6693001,5.6693001 0 0 0 5.66992,-5.66992 v -30.02344 a 5.6693001,5.6693001 0 0 0 -5.66992,-5.66992 z"
               id="line226" />
            <path
               style="color:#000000;fill:#e6b017;stroke-linecap:round;stroke-miterlimit:10;-inkscape-stroke:none"
               d="m 168.0957,935.9668 a 5.6693001,5.6693001 0 0 0 -5.66992,5.66992 5.6693001,5.6693001 0 0 0 5.66992,5.66992 h 7.34961 a 5.6693001,5.6693001 0 0 0 5.66992,-5.66992 5.6693001,5.6693001 0 0 0 -5.66992,-5.66992 z"
               id="line228" />
            <path
               style="color:#000000;fill:#e6b017;stroke-linecap:round;stroke-miterlimit:10;-inkscape-stroke:none"
               d="m 155.27344,950.97852 a 5.6693001,5.6693001 0 0 0 -5.66992,5.66992 5.6693001,5.6693001 0 0 0 5.66992,5.66797 h 12.82226 a 5.6693001,5.6693001 0 0 0 5.66992,-5.66797 5.6693001,5.6693001 0 0 0 -5.66992,-5.66992 z"
               id="line230" />
          </g>
        </g>
      </g>
      <g
         id="gold_icon_3_"
         transform="matrix(0.08733443,0,0,0.08733443,-4.9861825,-94.039238)">
        <g
           id="g249">
          <g
             id="circle237">
            <path
               style="color:#000000;fill:#ffcc33;stroke-width:11.3386;stroke-miterlimit:10;-inkscape-stroke:none"
               d="m 230.375,974.93799 a 36.301998,36.301998 0 0 1 -36.302,36.30201 36.301998,36.301998 0 0 1 -36.302,-36.30201 36.301998,36.301998 0 0 1 36.302,-36.302 36.301998,36.301998 0 0 1 36.302,36.302 z"
               id="path5214" />
            <path
               style="color:#000000;fill:#e6b017;stroke-miterlimit:10;-inkscape-stroke:none"
               d="m 194.07227,932.9668 c -23.11294,0 -41.97071,18.85777 -41.97071,41.9707 0,23.11293 18.85777,41.9727 41.97071,41.9727 23.11293,0 41.97265,-18.85977 41.97265,-41.9727 0,-23.11293 -18.85972,-41.9707 -41.97265,-41.9707 z m 0,11.33789 c 16.9851,0 30.63281,13.6477 30.63281,30.63281 0,16.98511 -13.64771,30.6328 -30.63281,30.6328 -16.98511,0 -30.63282,-13.64769 -30.63282,-30.6328 0,-16.98511 13.64771,-30.63281 30.63282,-30.63281 z"
               id="path5216" />
          </g>
          <g
             id="g247">
            <path
               style="color:#000000;fill:#e6b017;stroke-miterlimit:10;-inkscape-stroke:none"
               d="m 194.07227,938.13672 c -20.31924,0 -36.80079,16.48154 -36.80079,36.80078 0,20.31924 16.48155,36.8027 36.80079,36.8027 20.31924,0 36.80273,-16.48346 36.80273,-36.8027 0,-20.31924 -16.48349,-36.80078 -36.80273,-36.80078 z m 0,1 c 19.7788,0 35.80273,16.02198 35.80273,35.80078 0,19.7788 -16.02393,35.8027 -35.80273,35.8027 -19.7788,0 -35.80079,-16.0239 -35.80079,-35.8027 0,-19.7788 16.02199,-35.80078 35.80079,-35.80078 z"
               id="circle239" />
            <path
               style="color:#000000;fill:#e6b017;stroke-linecap:round;stroke-miterlimit:10;-inkscape-stroke:none"
               d="m 193.95312,954.5293 a 5.6693001,5.6693001 0 0 0 -5.66796,5.66992 v 30.02539 a 5.6693001,5.6693001 0 0 0 5.66796,5.66797 5.6693001,5.6693001 0 0 0 5.66993,-5.66797 v -30.02539 a 5.6693001,5.6693001 0 0 0 -5.66993,-5.66992 z"
               id="line241" />
            <path
               style="color:#000000;fill:#e6b017;stroke-linecap:round;stroke-miterlimit:10;-inkscape-stroke:none"
               d="m 193.95312,954.5293 a 5.6693001,5.6693001 0 0 0 -5.66796,5.66992 5.6693001,5.6693001 0 0 0 5.66796,5.66992 h 7.34961 a 5.6693001,5.6693001 0 0 0 5.66993,-5.66992 5.6693001,5.6693001 0 0 0 -5.66993,-5.66992 z"
               id="line243" />
            <path
               style="color:#000000;fill:#e6b017;stroke-linecap:round;stroke-miterlimit:10;-inkscape-stroke:none"
               d="m 181.13086,969.54102 a 5.6693001,5.6693001 0 0 0 -5.66992,5.66992 5.6693001,5.6693001 0 0 0 5.66992,5.66992 h 12.82226 a 5.6693001,5.6693001 0 0 0 5.66993,-5.66992 5.6693001,5.6693001 0 0 0 -5.66993,-5.66992 z"
               id="line245" />
          </g>
        </g>
      </g>
    </g>
  </g>
</svg>
